<?xml version="1.0" encoding="utf-8"?>
<!DOCTYPE svg PUBLIC "-//W3C//DTD SVG 1.1//EN" "http://www.w3.org/Graphics/SVG/1.1/DTD/svg11.dtd">
<svg version="1.1" id="Layer_1" xmlns="http://www.w3.org/2000/svg" xmlns:xlink="http://www.w3.org/1999/xlink" x="0px" y="0px" width="500px" height="175.297px" viewBox="0 0 500 175.297" enable-background="new 0 0 500 175.297" xml:space="preserve">
<path fill="#000000" d="M155.732,136.836l-0.097,0.14c-1.252-0.036-2.532-0.036-3.79-0.036c-0.057,1.989-0.04,3.983-0.04,5.973c0,2.228,0.029,4.447,0.144,6.664l-0.115,0.141c-0.783,0-1.583,0.02-2.366,0.063l-0.097-0.144c0.12-2.879,0.12-5.753,0.12-8.621c0-1.361-0.023-2.75-0.069-4.1c-1.269,0.04-2.542,0.06-3.812,0.098l-0.131-0.131c0.046-0.521,0.068-1.018,0.068-1.532l0.115-0.142c3.36,0,6.721,0,10.069-0.059l0.104,0.144C155.766,135.804,155.756,136.318,155.732,136.836"/>
<path fill="#231F20" d="M176.489,149.724c-0.777,0-1.537,0.017-2.32,0.057l-0.126-0.147c0.068-1.783,0.104-3.596,0.104-5.378v-1.497c-0.634-0.039-1.292-0.039-1.932-0.039c-1.601,0-3.178,0-4.783,0.057v1.789c0,1.656,0.074,3.342,0.165,5.012l-0.126,0.147c-0.783,0-1.543,0.017-2.319,0.057l-0.126-0.147c0.08-1.743,0.126-3.509,0.126-5.252c0-2.978,0.057-6.069-0.15-9.023l0.126-0.148c0.754-0.019,1.538-0.035,2.304-0.063l0.097,0.147c-0.058,1.709-0.08,3.384-0.08,5.098v0.617c0.823,0.04,1.628,0.04,2.446,0.04h1.229c1.034,0,2.04-0.017,3.046-0.04c-0.08-1.893-0.035-3.76-0.16-5.651l0.125-0.148c0.754-0.019,1.498-0.019,2.257-0.063l0.12,0.147c-0.057,2.097-0.102,4.2-0.102,6.286v2.097c0,1.973,0.045,3.95,0.206,5.899L176.489,149.724z"/>
<path fill="#000000" d="M196.067,149.576l-0.137,0.147c-2.858,0-5.692,0.017-8.544,0.057l-0.108-0.147c0.12-2.972,0.108-5.956,0.108-8.91c0-1.794-0.023-3.576-0.155-5.365l0.155-0.148c2.875-0.019,5.743-0.035,8.624-0.063l0.108,0.147c-0.063,0.537-0.108,1.068-0.12,1.605l-0.148,0.144c-2.058-0.067-4.092-0.104-6.149-0.104c-0.022,1.459-0.034,2.91-0.034,4.373h2.137c1.206,0,2.44-0.023,3.658-0.063l0.115,0.154c-0.058,0.531-0.104,1.062-0.115,1.6l-0.125,0.137c-1.498-0.04-2.995-0.062-4.521-0.062h-1.149c-0.023,0.97-0.051,1.938-0.051,2.896c0,0.687,0.028,1.338,0.028,2.019h1.125c1.766,0,3.538-0.04,5.287-0.104l0.097,0.147C196.119,148.548,196.09,149.062,196.067,149.576"/>
<path fill="#000000" d="M219.966,150.033c-1.303,0-2.88-0.293-4.029-0.91l-0.057-0.142c0.057-0.641,0.097-1.252,0.142-1.893l0.229-0.08c1.08,0.841,2.195,1.188,3.572,1.188c1.498,0,3.035-0.594,3.035-2.32c0-3.158-6.978-2.217-6.978-7.005c0-2.824,2.462-3.973,4.966-3.973c1.302,0,2.468,0.234,3.679,0.681l0.127,0.147c-0.092,0.595-0.127,1.212-0.172,1.807l-0.184,0.103c-1.103-0.623-2.114-0.961-3.394-0.961c-1.246,0-2.766,0.511-2.766,2.007c0,3.007,7.155,2.04,7.155,6.967C225.292,148.672,222.629,150.033,219.966,150.033"/>
<path fill="#000000" d="M244.025,136.836l-0.103,0.14c-1.252-0.036-2.526-0.036-3.783-0.036c-0.057,1.989-0.035,3.983-0.035,5.973c0,2.228,0.012,4.447,0.143,6.664l-0.131,0.141c-0.771,0-1.578,0.02-2.366,0.063l-0.08-0.144c0.114-2.879,0.114-5.753,0.114-8.621c0-1.361-0.034-2.75-0.068-4.1c-1.269,0.04-2.549,0.06-3.823,0.098l-0.12-0.131c0.046-0.521,0.057-1.018,0.057-1.532l0.126-0.142c3.354,0,6.721,0,10.069-0.059l0.102,0.144C244.059,135.804,244.047,136.318,244.025,136.836"/>
<path fill="#000000" d="M263.089,149.7c-0.8,0-1.577,0.036-2.377,0.063l-0.149-0.147c-0.389-1.436-0.8-2.875-1.211-4.316c-0.869-0.017-1.715-0.044-2.571-0.044c-0.841,0-1.703,0.027-2.549,0.044c-0.423,1.401-0.823,2.817-1.207,4.236l-0.143,0.144c-0.697,0.021-1.429,0.021-2.126,0.057l-0.079-0.137c0.908-2.677,1.839-5.345,2.754-8.02c0.731-2.067,1.439-4.109,2.04-6.223l0.154-0.148c0.995-0.019,1.955-0.019,2.938-0.059l0.143,0.144c1.406,4.771,2.949,9.491,4.463,14.242L263.089,149.7z M256.906,136.706l-2.149,6.927c0.663,0,1.371,0.027,2.045,0.027c0.703,0,1.377-0.027,2.08-0.027L256.906,136.706z"/>
<path fill="#000000" d="M280.057,136.836l-0.092,0.14c-1.252-0.036-2.531-0.036-3.789-0.036c-0.063,1.989-0.04,3.983-0.04,5.973c0,2.228,0.023,4.447,0.143,6.664l-0.12,0.141c-0.776,0-1.583,0.02-2.36,0.063l-0.102-0.144c0.114-2.879,0.114-5.753,0.114-8.621c0-1.361-0.012-2.75-0.045-4.1c-1.28,0.04-2.554,0.06-3.829,0.098l-0.125-0.131c0.045-0.521,0.057-1.018,0.057-1.532l0.12-0.142c3.354,0,6.726,0,10.069-0.059l0.108,0.144C280.108,135.804,280.097,136.318,280.057,136.836"/>
<path fill="#000000" d="M298.149,149.576l-0.142,0.147c-2.863,0-5.704,0.017-8.55,0.057l-0.103-0.147c0.114-2.972,0.103-5.956,0.103-8.91c0-1.794-0.022-3.576-0.149-5.365l0.149-0.148c2.881-0.019,5.749-0.035,8.63-0.063l0.102,0.147c-0.068,0.537-0.102,1.068-0.12,1.605l-0.142,0.144c-2.058-0.067-4.092-0.104-6.149-0.104c-0.023,1.459-0.04,2.91-0.04,4.373h2.131c1.224,0,2.446-0.023,3.658-0.063l0.126,0.154c-0.058,0.531-0.104,1.062-0.126,1.6l-0.12,0.137c-1.498-0.04-3-0.062-4.521-0.062h-1.148c-0.022,0.97-0.041,1.938-0.041,2.896c0,0.687,0.018,1.338,0.018,2.019h1.137c1.76,0,3.532-0.04,5.269-0.104l0.115,0.147C298.189,148.548,298.167,149.062,298.149,149.576"/>
<path fill="#000000" d="M329.598,138.832v2.702c0,1.007,0.034,2,0.034,3.001c0,3.582-1.657,5.498-5.394,5.498c-2.424,0-4.726-0.892-5.429-3.418c-0.195-0.738-0.195-1.514-0.195-2.274c0-3.007,0.035-6.006-0.068-8.983l0.115-0.148c0.795-0.019,1.543-0.019,2.326-0.063l0.108,0.147c-0.108,2.606-0.08,5.224-0.08,7.835c0,1.537-0.182,3.732,1.349,4.664c0.601,0.342,1.292,0.508,1.977,0.508c0.818,0,1.669-0.206,2.28-0.731c1.229-1.098,1.069-2.988,1.069-4.491c0-2.561,0-5.15-0.148-7.721l0.114-0.148c0.629-0.019,1.257-0.019,1.88-0.063l0.12,0.147C329.621,136.466,329.598,137.654,329.598,138.832"/>
<path fill="#000000" d="M351.833,149.724c-0.84,0-1.68,0.017-2.531,0.057l-0.16-0.147c-1.195-2.177-2.44-4.31-3.658-6.47l-3.247-5.794l0.207,7.046c0.033,1.732,0.09,3.435,0.177,5.161l-0.097,0.147c-0.658,0-1.337,0.017-2,0.057l-0.12-0.147c0.12-2.715,0.108-5.425,0.108-8.139c0-2,0.012-4.147-0.115-6.137l0.091-0.148c0.88-0.019,1.76-0.019,2.646-0.063l0.234,0.147c2.178,4.017,4.458,7.989,6.721,11.985c-0.114-3.973-0.148-7.969-0.354-11.922l0.125-0.148c0.652,0,1.297-0.019,1.943-0.063l0.137,0.147c0,3.018-0.074,6.019-0.074,9.023c0,1.767,0.022,3.516,0.074,5.259L351.833,149.724z"/>
<path fill="#000000" d="M365.098,149.724c-0.778,0-1.532,0.017-2.297,0.057l-0.126-0.147c0.086-1.412,0.115-2.828,0.115-4.253v-2.28c0-2.582-0.035-5.159-0.166-7.742l0.13-0.148c0.755-0.019,1.509-0.019,2.269-0.08l0.12,0.165c-0.034,2.173-0.097,4.354-0.097,6.533c0,2.588,0.052,5.165,0.184,7.749L365.098,149.724z"/>
<path fill="#231F20" d="M384.196,142.442c-0.743,2.384-1.561,4.727-2.24,7.138l-0.125,0.144c-0.983,0-1.989,0.013-2.972,0.053l-0.149-0.14c-0.188-0.599-0.319-1.209-0.514-1.811c-0.309-1.085-0.64-2.149-0.965-3.245c-0.921-3.087-1.869-6.16-2.834-9.23l0.12-0.142c0.794-0.019,1.583-0.019,2.366-0.063l0.143,0.147c1.115,4.333,2.326,8.646,3.526,12.974l1.817-6.458c0.629-2.139,1.155-4.315,1.761-6.459l0.125-0.142c0.686-0.019,1.394-0.019,2.057-0.063l0.104,0.147C385.614,137.66,384.962,140.064,384.196,142.442"/>
<path fill="#000000" d="M404.42,149.576l-0.143,0.147c-2.863,0-5.691,0.017-8.549,0.057l-0.109-0.147c0.12-2.972,0.109-5.956,0.109-8.91c0-1.794-0.012-3.576-0.143-5.365l0.143-0.148c2.88-0.019,5.749-0.035,8.629-0.063l0.103,0.147c-0.063,0.537-0.103,1.068-0.12,1.605l-0.148,0.144c-2.063-0.067-4.086-0.104-6.143-0.104c-0.017,1.459-0.04,2.91-0.04,4.373h2.131c1.223,0,2.458-0.023,3.658-0.063l0.125,0.154c-0.057,0.531-0.104,1.062-0.125,1.6l-0.12,0.137c-1.502-0.04-3-0.062-4.521-0.062h-1.148c-0.017,0.97-0.052,1.938-0.052,2.896c0,0.687,0.035,1.338,0.035,2.019h1.132c1.76,0,3.531-0.04,5.274-0.104l0.097,0.147C404.46,148.548,404.438,149.062,404.42,149.576"/>
<path fill="#000000" d="M425.114,149.74c-0.846,0-1.68,0.02-2.521,0.08l-0.154-0.08c-0.663-1.165-1.395-2.262-2.137-3.37c-0.634-0.967-1.235-1.909-1.915-2.83c-0.492,0-1,0.013-1.492,0.013c0,2.017,0.057,4.011,0.16,6.023l-0.125,0.147c-0.766,0-1.498,0.017-2.264,0.057l-0.114-0.144c0.057-2.01,0.08-4.004,0.08-6.022c0-2.748-0.035-5.503-0.207-8.257l0.126-0.148c0.856,0,1.708-0.035,2.56-0.035h1.257c2.824,0,5.818,0.424,5.818,3.955c0,2.184-1.498,3.526-3.498,4.057c1.498,2.121,2.938,4.274,4.532,6.351L425.114,149.74z M421.285,137.654c-0.777-0.835-2.034-0.818-3.097-0.818c-0.429,0-0.892,0.018-1.314,0.04c-0.023,0.521-0.023,1.069-0.023,1.583v1.766c0,0.557,0,1.088,0.023,1.646c0.308,0,0.594,0.019,0.902,0.019c1.726,0,4.126-0.303,4.126-2.579C421.902,138.716,421.708,138.111,421.285,137.654"/>
<path fill="#231F20" d="M438.051,150.033c-1.291,0-2.868-0.293-4.023-0.91l-0.069-0.142c0.069-0.641,0.109-1.252,0.144-1.893l0.234-0.08c1.086,0.841,2.2,1.188,3.578,1.188c1.503,0,3.041-0.594,3.041-2.32c0-3.158-6.996-2.217-6.996-7.005c0-2.824,2.481-3.973,4.978-3.973c1.297,0,2.469,0.234,3.674,0.681l0.126,0.147c-0.08,0.595-0.126,1.212-0.155,1.807l-0.188,0.103c-1.12-0.623-2.114-0.961-3.383-0.961c-1.263,0-2.784,0.511-2.784,2.007c0,3.007,7.149,2.04,7.149,6.967C443.378,148.672,440.727,150.033,438.051,150.033"/>
<path fill="#000000" d="M455.859,149.724c-0.766,0-1.532,0.017-2.28,0.057l-0.12-0.147c0.068-1.412,0.097-2.828,0.097-4.253v-2.28c0-2.582-0.04-5.159-0.166-7.742l0.125-0.148c0.754-0.019,1.514-0.019,2.273-0.08l0.127,0.165c-0.047,2.173-0.109,4.354-0.109,6.533c0,2.588,0.052,5.165,0.189,7.749L455.859,149.724z"/>
<path fill="#000000" d="M475.392,136.836l-0.091,0.14c-1.252-0.036-2.532-0.036-3.794-0.036c-0.058,1.989-0.035,3.983-0.035,5.973c0,2.228,0.012,4.447,0.144,6.664l-0.132,0.141c-0.776,0-1.577,0.02-2.354,0.063l-0.092-0.144c0.109-2.879,0.109-5.753,0.109-8.621c0-1.361-0.017-2.75-0.063-4.1c-1.269,0.04-2.549,0.06-3.817,0.098l-0.114-0.131c0.023-0.521,0.052-1.018,0.052-1.532l0.12-0.142c3.354,0,6.721,0,10.069-0.059l0.103,0.144C475.426,135.804,475.415,136.318,475.392,136.836"/>
<path fill="#000000" d="M490.753,143.593c-0.034,0.515-0.034,1.028-0.034,1.543c0,1.473,0,2.965,0.114,4.444l-0.114,0.137c-0.755,0-1.51,0.02-2.274,0.043l-0.104-0.144c0.046-1.252,0.058-2.504,0.058-3.767v-2.086c-1.451-2.824-2.938-5.589-4.521-8.337l0.109-0.218c0.806-0.035,1.584-0.063,2.389-0.139l0.143,0.104c0.611,1.201,1.172,2.446,1.755,3.658c0.479,0.965,1.017,1.907,1.469,2.885c1.148-2.09,2.246-4.223,3.264-6.383l0.153-0.125c0.691,0,1.354-0.019,2.029-0.063l0.12,0.164C493.748,138.048,492.141,140.785,490.753,143.593"/>
<path fill="#000000" d="M153.207,175.297c-4.48,0-6.658-3.211-6.658-7.441c0-4.273,2.138-7.686,6.767-7.686c4.554,0,6.594,3.509,6.594,7.686C159.91,172.108,157.732,175.297,153.207,175.297 M153.252,161.879c-3.309,0-4.235,3.079-4.235,5.813c0,2.708,0.989,5.874,4.235,5.874c3.263,0,4.207-3.136,4.207-5.874C157.458,164.874,156.624,161.879,153.252,161.879"/>
<path fill="#000000" d="M178.511,162.183l-0.125,0.147c-1.931-0.091-3.846-0.091-5.783-0.104c-0.018,1.532-0.029,3.082-0.029,4.618c1.697-0.018,3.389-0.04,5.093-0.098l0.102,0.116c-0.045,0.555-0.085,1.096-0.148,1.656l-0.125,0.137c-1.623-0.063-3.264-0.063-4.892-0.08c0,0.384-0.018,0.755-0.018,1.155c0,1.696,0.018,3.412,0.143,5.115l-0.108,0.144c-0.79,0-1.583,0.017-2.372,0.061l-0.102-0.147c0.08-2.007,0.114-4.023,0.114-6.046v-2.234c0-1.996-0.034-4.013-0.114-5.996l0.102-0.147c2.743,0,5.521,0,8.275-0.063l0.108,0.143C178.569,161.091,178.546,161.646,178.511,162.183"/>
<path fill="#000000" d="M209.113,174.99c-0.84,0-1.685,0.017-2.531,0.061l-0.16-0.147c-1.194-2.177-2.446-4.32-3.663-6.47l-3.24-5.8l0.194,7.052c0.045,1.726,0.114,3.435,0.194,5.161l-0.097,0.144c-0.658,0-1.343,0.017-1.995,0.061l-0.125-0.147c0.125-2.708,0.092-5.429,0.092-8.137c0-2.02,0.033-4.156-0.115-6.14l0.104-0.147c0.891-0.022,1.771-0.022,2.651-0.063l0.229,0.143c2.183,4.023,4.458,7.994,6.721,11.973c-0.103-3.956-0.149-7.949-0.354-11.905l0.125-0.147c0.664,0,1.292-0.022,1.95-0.063l0.12,0.143c0,3.022-0.058,6.023-0.058,9.019c0,1.776,0.023,3.52,0.058,5.269L209.113,174.99z"/>
<path fill="#000000" d="M228.744,174.847l-0.155,0.144c-2.852,0-5.686,0.017-8.543,0.061l-0.103-0.147c0.119-2.972,0.103-5.96,0.103-8.915c0-1.789-0.022-3.571-0.149-5.361l0.149-0.147c2.881-0.022,5.749-0.04,8.63-0.063l0.102,0.143c-0.057,0.531-0.102,1.069-0.114,1.604l-0.148,0.139c-2.058-0.059-4.092-0.097-6.149-0.097c-0.023,1.462-0.034,2.912-0.034,4.377h2.137c1.206,0,2.44-0.023,3.652-0.057l0.119,0.141c-0.057,0.527-0.091,1.064-0.119,1.596l-0.12,0.144c-1.509-0.04-2.995-0.063-4.521-0.063h-1.148c-0.023,0.972-0.047,1.937-0.047,2.902c0,0.687,0.023,1.338,0.023,2.013h1.125c1.777,0,3.537-0.047,5.287-0.098l0.097,0.147C228.778,173.818,228.761,174.332,228.744,174.847"/>
<path fill="#000000" d="M253.649,167.238c-0.423,1.847-0.881,3.699-1.28,5.551c-0.137,0.675-0.286,1.37-0.422,2.058l-0.15,0.147c-0.994,0-1.965,0.013-2.96,0.057l-0.142-0.147c-0.229-1.401-0.497-2.771-0.761-4.144l-1.668-8.863c-0.88,4.313-1.744,8.623-2.584,12.95l-0.125,0.147c-0.989,0-2,0.013-2.983,0.057l-0.148-0.147c-0.469-2.407-1.023-4.808-1.554-7.205c-0.514-2.373-1.052-4.738-1.623-7.071l0.103-0.147c0.777-0.022,1.561-0.022,2.343-0.063l0.114,0.143c0.743,4.338,1.629,8.675,2.447,12.995c0.805-4.32,1.645-8.617,2.411-12.928l0.12-0.147c1.092-0.022,2.183-0.022,3.263-0.063l0.132,0.143c0.199,1.463,0.468,2.915,0.736,4.378l1.623,8.65l1.606-8.113c0.326-1.625,0.634-3.235,0.875-4.848l0.125-0.147c0.681-0.022,1.337-0.022,2.011-0.063l0.115,0.143C254.563,162.76,254.14,164.994,253.649,167.238"/>
<path fill="#000000" d="M278.851,165.675c0,1.787,0.045,3.56,0.045,5.343c0,2.594-1.045,4.103-3.852,4.103c-0.503,0-0.995-0.073-1.509-0.177l-0.104-0.166v-1.583l0.115-0.114c0.399,0.114,0.765,0.178,1.177,0.178c0.943,0,1.474-0.431,1.748-1.355c0.12-0.411,0.104-2.224,0.104-2.708v-1.526c0-2.343-0.045-4.708-0.137-7.047l0.12-0.142c0.754,0,1.526-0.029,2.292-0.063l0.102,0.147C278.919,162.267,278.851,163.977,278.851,165.675"/>
<path fill="#231F20" d="M298.337,174.847l-0.148,0.144c-2.856,0-5.681,0.017-8.549,0.061l-0.103-0.147c0.126-2.972,0.103-5.96,0.103-8.915c0-1.789-0.012-3.571-0.137-5.361l0.137-0.147c2.88-0.022,5.761-0.04,8.629-0.063l0.108,0.143c-0.063,0.531-0.108,1.069-0.13,1.604l-0.138,0.139c-2.057-0.059-4.092-0.097-6.137-0.097c-0.023,1.462-0.046,2.912-0.046,4.377h2.138c1.21,0,2.445-0.023,3.656-0.057l0.12,0.141c-0.051,0.527-0.097,1.064-0.12,1.596l-0.125,0.144c-1.498-0.04-2.995-0.063-4.514-0.063h-1.155c-0.022,0.972-0.045,1.937-0.045,2.902c0,0.687,0.023,1.338,0.023,2.013h1.13c1.772,0,3.532-0.047,5.28-0.098l0.115,0.147C298.377,173.818,298.361,174.332,298.337,174.847"/>
<path fill="#000000" d="M319.037,175.007c-0.846,0-1.692,0.021-2.538,0.084l-0.137-0.084c-0.652-1.168-1.395-2.257-2.15-3.372c-0.628-0.965-1.222-1.903-1.903-2.835c-0.498,0-1.012,0.011-1.491,0.011c0,2.029,0.052,4.017,0.16,6.036l-0.131,0.147c-0.76,0-1.492,0.013-2.257,0.057l-0.12-0.147c0.063-2.007,0.074-4.013,0.074-6.029c0-2.744-0.034-5.499-0.206-8.247l0.132-0.147c0.863,0,1.703-0.04,2.566-0.04h1.257c2.806,0,5.806,0.428,5.806,3.96c0,2.184-1.486,3.526-3.492,4.051c1.504,2.116,2.944,4.276,4.521,6.356L319.037,175.007z M315.208,162.925c-0.778-0.846-2.035-0.818-3.104-0.818c-0.429,0-0.886,0.02-1.32,0.04c-0.022,0.527-0.022,1.059-0.022,1.572v1.772c0,0.555,0,1.092,0.022,1.646c0.315,0,0.606,0.017,0.915,0.017c1.726,0,4.12-0.31,4.12-2.571C315.819,163.988,315.619,163.375,315.208,162.925"/>
<path fill="#000000" d="M331.975,175.297c-1.292,0-2.88-0.29-4.028-0.901l-0.063-0.144c0.063-0.641,0.103-1.269,0.137-1.896l0.235-0.08c1.091,0.839,2.206,1.188,3.577,1.188c1.503,0,3.035-0.595,3.035-2.32c0-3.172-6.983-2.219-6.983-7.007c0-2.818,2.457-3.967,4.978-3.967c1.297,0,2.463,0.224,3.674,0.681l0.125,0.144c-0.08,0.594-0.125,1.212-0.171,1.816l-0.183,0.087c-1.108-0.607-2.115-0.961-3.383-0.961c-1.257,0-2.777,0.508-2.777,2.017c0,3.001,7.155,2.035,7.155,6.967C337.301,173.932,334.649,175.297,331.975,175.297"/>
<path fill="#000000" d="M356.148,174.847l-0.155,0.144c-2.857,0-5.686,0.017-8.549,0.061l-0.097-0.147c0.125-2.972,0.097-5.96,0.097-8.915c0-1.789-0.017-3.571-0.142-5.361l0.142-0.147c2.886-0.022,5.754-0.04,8.635-0.063l0.104,0.143c-0.069,0.531-0.104,1.069-0.132,1.604l-0.143,0.139c-2.052-0.059-4.08-0.097-6.138-0.097c-0.022,1.462-0.045,2.912-0.045,4.377h2.137c1.223,0,2.44-0.023,3.664-0.057l0.12,0.141c-0.058,0.527-0.097,1.064-0.12,1.596l-0.12,0.144c-1.509-0.04-3-0.063-4.526-0.063h-1.155c-0.017,0.972-0.04,1.937-0.04,2.902c0,0.687,0.023,1.338,0.023,2.013h1.125c1.771,0,3.543-0.047,5.28-0.098l0.115,0.147C356.183,173.818,356.16,174.332,356.148,174.847"/>
<path fill="#000000" d="M371.841,168.863c-0.012,0.519-0.012,1.028-0.012,1.536c0,1.479,0,2.961,0.091,4.44l-0.091,0.15c-0.766,0-1.532,0.017-2.292,0.033l-0.109-0.137c0.045-1.263,0.063-2.515,0.063-3.767v-2.097c-1.463-2.813-2.932-5.585-4.509-8.339l0.098-0.211c0.8-0.04,1.583-0.057,2.383-0.144l0.143,0.104c0.611,1.212,1.171,2.446,1.766,3.656c0.468,0.968,1.005,1.909,1.462,2.897c1.144-2.09,2.24-4.228,3.269-6.383l0.16-0.131c0.674,0,1.337-0.023,2.011-0.057l0.125,0.164C374.847,163.314,373.229,166.046,371.841,168.863"/>
<path fill-rule="evenodd" clip-rule="evenodd" fill="#CC0033" d="M148.023,94.919l3.498-1.052V35.023c0-14.24,0-14.824,4.549-15.292l4.205-0.35v-2.515h-28.351v2.515l4.2,0.35c4.544,0.468,4.544,1.052,4.544,15.292v47.402c-1.749,2.1-8.973,9.334-21.11,9.334c-18.076,0-20.882-11.087-20.882-27.78V35.023c0-14.247,0-14.824,4.549-15.292l4.195-0.35v-2.515H79.075v2.515l4.206,0.35c4.55,0.468,4.55,1.045,4.55,15.292v30.819c0,15.875,1.977,29.78,26.127,29.78c15.521,0,25.202-7.351,26.831-7.351c1.754-0.005,2.68,1.624,4.32,3.258L148.023,94.919z"/>
<path fill-rule="evenodd" clip-rule="evenodd" fill="#CC0033" d="M179.277,93.867h32.312v-2.514l-4.195-0.354c-6.537-0.457-6.537-1.034-6.537-15.287V20.13h6.068c16.448,0,16.676,1.762,19.253,15.3h2.794c0-0.47-0.589-15.995-1.058-18.563h-64.971c-0.48,2.567-1.052,18.093-1.052,18.563h2.801c2.56-13.538,2.788-15.3,19.248-15.3h6.068v55.582c0,14.253,0,14.83-6.412,15.287l-4.32,0.354V93.867z"/>
<path fill-rule="evenodd" clip-rule="evenodd" fill="#CC0033" d="M300.785,78.513c0-11.361,0-11.943,2.217-12.407l4.206-0.35v-2.514h-29.631v2.514l4.2,0.35c8.161,0.464,8.161,1.046,8.161,15.332v8.813c-4.092,1.046-9.447,1.509-13.647,1.509c-22.865,0-33.008-18.482-33.008-38.37c0-21.823,12.012-34.419,31.133-34.419c19.956,0,21.464,14.235,22.641,18.903l3.15-0.708c-0.514-5.749-1.126-12.279-1.87-17.264c-3.035-1.863-11.897-4.777-23.796-4.777c-18.435,0-43.512,9.325-43.512,40.483c0,29.728,20.996,40.015,44.438,40.015c12.481,0,21.419-3.365,25.545-4.657C301.012,90.966,300.785,82.021,300.785,78.513"/>
<path fill-rule="evenodd" clip-rule="evenodd" fill="#CC0033" d="M314.374,93.867h53.444c1.509-6.313,2.823-12.133,3.841-19.371l-2.915-0.471c-2.332,9.579-3.503,16.573-22.082,16.573c-4.184,0-8.492-0.702-12.687-1.513V55.482h10.361c9.08,0,11.173,0.126,11.864,4.904l0.6,3.959h3.07v-20.99h-3.07l-0.6,3.96c-0.691,4.784-2.784,4.909-11.864,4.909h-10.361V20.13h9.67c16.463,0,16.698,1.762,19.269,14.248l2.801-0.47c0-1.063-0.595-14.474-1.063-17.041h-50.278v2.515l4.206,0.35c4.543,0.468,4.543,1.052,4.543,15.302V75.69c0,14.264,0,14.852-4.543,15.309l-4.206,0.354V93.867z"/>
<path fill-rule="evenodd" clip-rule="evenodd" fill="#CC0033" d="M380.801,93.867h28.231v-2.514l-4.212-0.354c-4.423-0.457-4.423-1.041-4.423-15.298V60.271h4.327c2.439,0,5.349,0,7.234,1.521c1.509,1.279,4.183,5.726,7.218,11.445l4.664,9.008c3.502,6.423,8.863,11.622,16.566,11.622h8.978v-2.514c-2.566,0-4.663-0.458-5.829-1.159c-2.915-1.646-8.058-8.54-12.949-17.3c-3.155-5.606-7.006-13.099-8.761-16.36c6.423-3.041,16.098-9.459,16.098-20.329c0-17.738-15.624-19.338-26.693-19.338h-30.449v2.515l4.195,0.35c4.549,0.468,4.549,1.052,4.549,15.302v40.668c0,14.257,0,14.841-4.549,15.298l-4.195,0.354V93.867z M400.397,21.651c2.337-0.468,4.783-0.928,7.229-0.928c9.109,0,18.082,4.196,18.082,17.849c0,13.178-8.869,18.425-18.665,18.425h-6.646V21.651z"/>
<path fill-rule="evenodd" clip-rule="evenodd" fill="#CC0033" d="M474.81,46.03c-6.31-3.726-11.321-7.458-11.321-14.344c0-7.818,5.949-12.716,12.715-12.716c13.178,0,15.046,10.155,16.218,15.989h2.915c-0.274-3.405-0.56-11.956-1.172-16.116c-3.034-1.856-8.863-3.719-16.086-3.719c-12.373,0-24.277,5.942-24.277,20.172c0,8.75,6.184,15.985,12.835,19.602l7.475,4.093c9.087,4.073,16.213,9.909,16.213,18.423c0,9.104-5.961,14.346-13.996,14.346c-15.996,0-20.31-13.875-21.59-22.277l-3.726,0.932c1.309,7.995,2.606,16.128,3.726,20.539c3.611,2.217,9.211,4.67,18.31,4.67c12.367,0,26.952-6.069,26.952-21.818c0-14.009-9.556-18.906-18.791-24.151L474.81,46.03z"/>
<path fill-rule="evenodd" clip-rule="evenodd" fill="#CC0033" d="M52.261,49.413c1.32,7.395,11.63,26.385,15.579,33.442c8.932,16.477,31.82,49.804,48.958,48.742l1.973,0.004l-0.018,2.704l-3.005,0.097c-24.213,0.944-45.844-26.019-58.428-47.644c-5.12-8.794-10.081-19.007-14.498-28.175c-1.108-2.364-2.491-3.873-4.04-4.811c-2.383-1.27-5.503-1.246-8.075-1.246c-1.492-0.017-5.933,0-8.241,0l-0.012,19.436c0,3.578-0.274,12.425,0.698,15.904c0.76,2.744,2.429,3.099,5.178,3.389l4.743,0.389v2.206H0v-2.206l4.749-0.389c2.817-0.29,4.514-0.634,5.292-3.389c0.994-3.445,0.72-12.35,0.72-15.904V21.955c0-3.539,0.274-12.453-0.72-15.895C9.263,3.306,7.566,2.965,4.749,2.672L0,2.277v-2.2h22.544C42.398,0.083,69.183-2.74,69.183,25.16c0,11.298-7.674,18.653-17.064,23.271C52.147,48.882,52.261,49.413,52.261,49.413 M22.464,49.436c3.578,0.194,7.407-0.103,10.984-0.103c13.807,0,22.252-7.406,22.252-21.208c0-15.018-8.572-24.229-23.875-24.229c-3.155,0-6.258,0.617-9.35,1.229L22.464,49.436z"/>
</svg>
