<svg xmlns="http://www.w3.org/2000/svg" width="610" height="610"><path fill="#003da5" d="M301 9c4.92 2.24 7.47 5.24 10 10 .25 2.87.25 2.87 0 5l-5 1c-.34-.57-.68-1.13-1.03-1.71-3.84-5.81-3.84-5.81-7.01-7.15-3.11-.49-5.39-.45-8.19 1.05C288 19 288 19 287.61 21.48c.05.89.09 1.79.14 2.71.04.9.07 1.8.11 2.73.05.69.09 1.37.14 2.08a539.744 539.744 0 0 1 7.2 2.16c1.75.52 3.52 1.03 5.29 1.5 5.66 1.6 8.23 3.42 11.51 8.34 1.94 5.81 1.29 11.38-1 17-3.15 3.41-6.33 5.85-11.01 6.27-12.24.34-12.24.34-16.72-3.65-3.34-4.28-4.78-9.2-4.27-14.62 2.31-.69 2.31-.69 5-1 1.75 1 1.75 1 3 3 .69 3.69.69 3.69 1 7 9 2.43 9 2.43 13.06.69 2.92-2.55 2.92-2.55 3.18-4.65.02-.8.05-1.59.07-2.42l.12-2.39C304 44 304 44 302.41 42.33c-4.07-2.25-8.51-3.06-13-4.17-4.58-1.56-7.52-3.47-9.79-7.78-1.04-5.66-.63-11.01 1.63-16.32C286.59 7.77 293.34 8.14 301 9M253.172 13.84c4.54-.2 7.28.3 10.83 3.16 4.18 4.77 5.27 7.46 5.23 13.67-.32 3.22-1.55 5.6-3.23 8.33.74.68 1.48 1.36 2.25 2.06 4.84 5.73 6.75 15.6 6.75 22.94-.83.17-.83.17-5 1-4.32-4.17-5.07-8.67-6.19-14.36-.81-2.64-.81-2.64-3.81-4.64-2.92.02-2.92.02-6.19.38-1.09.11-2.17.22-3.29.33-.42.05-.42.05-2.52.29.14 1.6.29 3.21.44 4.81.08.9.16 1.79.24 2.71.32 2.48.32 2.48 1.32 5.48.13 2.67.04 5.32 0 8l-5 2c-4.36-8.14-5.72-16.64-7.29-25.64-.46-2.62-.94-5.24-1.42-7.85l-.9-5.03c-.14-.77-.28-1.55-.43-2.35-.65-3.75-1.13-7.32-.96-11.13 6.51-2.72 12.19-3.65 19.17-4.16M242.002 23c.69 5.42 1.76 10.68 3 16 4.8.38 8.09.48 12.44-1.81 2.56-2.19 2.56-2.19 4.56-5.19-.08-4.14-.38-6.28-3.13-9.44-5.73-3.11-11.02-1.47-16.87.44M370 17c2.31.44 2.31.44 5 2 3.24 6.5 4.07 14.16 5.19 21.25.17 1.06.35 2.12.53 3.22.75 4.57 1.38 8.89 1.28 13.53h2c.14-.55.27-1.1.41-1.67 2.66-10.28 6.18-20.28 9.59-30.33 1.67-.04 3.33-.04 5 0 .17.16.17.16 1 1-.09 6.85-1.69 13.23-3.72 19.73-.27.87-.53 1.74-.81 2.64-.83 2.76-1.68 5.51-2.53 8.25-.58 1.89-1.15 3.77-1.72 5.65-1.4 4.58-2.81 9.16-4.22 13.73-5.42 1.32-5.42 1.32-7.78.01-1.78-2.94-2.19-5.75-2.79-9.13-.13-.69-.25-1.39-.38-2.1-.41-2.22-.79-4.44-1.17-6.66l-.81-4.45c-.49-2.74-.97-5.47-1.45-8.21-.51-2.83-1.04-5.65-1.62-8.46-1.68 3.1-2.71 6.14-3.66 9.54-.3 1.05-.6 2.11-.91 3.2l-1.86 6.66c-.3 1.06-.6 2.11-.91 3.2-.27.96-.54 1.93-.82 2.92C362 65 362 65 360 68c-2.5.38-2.5.38-5 0-2-3-2-3-1.59-5.43a426.911 426.911 0 0 0 1.95-6.12c.38-1.14.75-2.28 1.14-3.45.37-1.16.74-2.32 1.13-3.52.75-2.36 1.51-4.73 2.28-7.09.99-3.07 1.93-6.14 2.86-9.23.26-.87.53-1.74.8-2.63l1.44-4.83c1.14-3.7 2.12-6.11 4.99-8.7M208.984 24.945c3.1 1.62 4.37 4.03 6.27 6.93.79 1.19 1.59 2.39 2.39 3.58.19.3.19.3 1.2 1.82 5.04 7.52 10.61 14.69 16.08 21.9 6.08 8.26 6.08 8.26 6.08 10.82l-6 2c-3.45-3.17-5.42-5.6-7-10l-5.82 1.38c-1.08.25-2.15.51-3.27.77-2.91.85-2.91.85-5.91 2.85-.22 3.09 0 6.07.18 9.16-.18 2.84-.18 2.84-1.56 4.72-1.62 1.12-1.62 1.12-3.69 1.19-1.93-1.07-1.93-1.07-3.03-3.67-.98-3.68-1.22-6.91-1.32-10.71l-.06-2.09c-.06-2.2-.1-4.4-.15-6.6l-.12-4.33c-.09-3.53-.15-7.07-.21-10.6-.04-2.05-.12-4.1-.21-6.14-.03-1.26-.07-2.51-.11-3.8-.02-.56-.02-.56-.13-3.37.41-2.76.41-2.76 2.3-4.63 2.11-1.13 2.11-1.13 4.09-1.18m2.02 14.05v19c8-1 8-1 11-3-1.45-4.12-3.48-7.3-6.07-10.81-.71-.97-1.42-1.95-2.16-2.95-.58-.74-1.17-1.48-1.77-2.24zM435.75 39.75c5.18 3.59 7.78 7.11 9.25 13.25.36 5.59-.58 9.75-2.56 14.87-.27.7-.54 1.4-.81 2.13-3.65 9.08-9.28 16.8-18.44 20.81-5.12 1.74-9.45 1.4-14.33-.76-4.71-2.63-8.35-5.71-9.86-11.05-1.54-12.31 2.07-21.06 9.29-30.81 7.26-9.29 16.35-14.21 27.46-8.44m-20.39 11.2C409.97 58.72 404.61 68.27 406 78c2.1 3.44 4.13 5.75 8 7 3.86.6 6.26.13 9.5-1.94 6.66-5.2 11.58-13.73 13-21.99 1.07-9.19 1.07-9.19-2.5-14.07-6.43-4.66-13.96-1.63-18.64 3.95M463 59c4.64.52 7.37 2.4 11.06 5.19 1.02.75 2.05 1.51 3.1 2.29 4.01 3.56 6.6 6.64 7.28 12.02-.64 5.11-2.17 8.19-5.75 11.88-3.16 1.91-5.06 1.96-8.69 1.62.11.65.21 1.3.32 1.98.77 5.61 1.06 9.18-2.32 14.02-3.56 4.01-5.69 5.72-11.06 6.38-9.61-.92-16.85-7.3-23.94-13.38 1.26-3.46 2.71-6.24 4.91-9.19.57-.77 1.15-1.55 1.74-2.35.61-.81 1.22-1.62 1.85-2.46s1.25-1.68 1.9-2.55c6.4-8.58 12.89-17.1 19.6-25.45m2 9a89 89 0 0 0-4.12 5.38c-.37.49-.37.49-2.2 3.02C457 79 457 79 457 81c2.01 1.54 2.01 1.54 4.69 3.19.87.55 1.74 1.1 2.63 1.67 3.14 1.34 4.49 1.23 7.68.14 2.27-1.83 3.67-3.32 4.94-5.94.09-3.2-.98-4.55-2.94-7.06-5.92-5-5.92-5-9-5m-14.46 19.29c-3.36 4.04-6.08 8.07-8.54 12.71 11.18 7.22 11.18 7.22 16 7 3.08-1.51 4.5-2.82 5.85-5.99.62-2.65.75-4.34.15-7.01-2.57-3.28-5.47-5.8-9-8-3 0-3 0-4.46 1.29M140 64c2.98 1.79 5.59 3.97 8.25 6.19 1.58 1.27 3.15 2.55 4.73 3.82.82.66 1.64 1.31 2.48 1.99 2.57 2.03 5.2 3.96 7.87 5.87.43.31.43.31 2.62 1.88 1.67 1.19 3.35 2.37 5.03 3.54 6.97 5 6.97 5 8.02 9.71-2 1.25-2 1.25-5 2-3.86-1.3-7.12-3.12-10-6-2.94.22-5.13 1.61-7.62 3.06C153 98 153 98 151 98c.3.81.6 1.62.91 2.45l1.15 3.24c.39 1.05.77 2.11 1.16 3.2.8 3.2.7 4.98-.22 8.11-.82.16-.82.16-5 1-1.35-2.99-2.68-5.99-4-9l-1.24-2.81c-2.67-6.23-4.81-12.45-6.71-18.94-1.39-4.31-3.2-8.39-5.1-12.5-1.06-3.07-1.12-5.52-.95-8.75 3.1-1.55 5.81-1.02 9 0m1 11c1.66 5.86 3.47 11.46 6 17 2.75-.19 2.75-.19 6-1 2.2-2.55 2.2-2.55 4-5-1.72-1.47-3.45-2.92-5.19-4.38-.96-.81-1.92-1.62-2.92-2.46-2.62-1.96-4.8-3.13-7.89-4.16M499 87c2.25.25 2.25.25 4 1 .66 1.79.66 1.79 1 4-.94 1.65-.94 1.65-2.56 3.38-.32.34-.32.34-1.94 2.08-3.76 3.82-7.56 7.61-11.36 11.39-4.78 4.75-9.38 9.6-13.52 14.93-3.15 4.01-3.15 4.01-5.81 5.22H467l-2-2c.29-3.96 1.51-6.02 4.19-8.88.63-.68 1.26-1.36 1.91-2.07L473 114c1.49-1.74 2.97-3.5 4.45-5.26 2.09-2.34 4.32-4.53 6.55-6.74l2.75-2.75L495 91c.73-.78 1.45-1.55 2.2-2.36.59-.54 1.19-1.08 1.8-1.64M110.915 82.248c2.45.88 3.63 1.94 5.44 3.79l1.93 1.93c.33.34.33.34 2.04 2.09l2.12 2.15c2.23 2.25 4.46 4.52 6.68 6.79 2.23 2.27 4.47 4.54 6.71 6.8 1.39 1.41 2.78 2.82 4.16 4.24.63.63 1.26 1.27 1.9 1.93.28.28.28.28 1.68 1.7 1.42 1.33 1.42 1.33 3.42 2.33l-1 6c-6.55 1.83-11.5-.11-17.79-2.26-3.64-1.22-7.31-2.37-10.97-3.52-2.96-.94-5.92-1.88-8.88-2.83-.42-.13-.42-.13-2.54-.81-.6-.19-1.2-.38-1.82-.58.79.78 1.58 1.55 2.38 2.35 5.24 5.18 10.39 10.35 15.16 15.97 1.39 1.6 2.86 3.04 4.4 4.49 2.06 2.19 2.06 2.19 2.06 5.19-2.5.94-2.5.94-6 1-4.41-2.76-7.73-6.68-11.1-10.6-4.53-5.21-9.43-10.04-14.33-14.9-.92-.92-1.85-1.83-2.8-2.78-2.25-2.24-4.51-4.48-6.77-6.72 1.88-4.87 1.88-4.87 3-6 5.44.45 10.17 1.52 15.35 3.29.65.22 1.31.44 1.98.67 2.06.69 4.12 1.4 6.17 2.1l4.23 1.44c3.43 1.16 6.85 2.33 10.27 3.5.17-.16.17-.16 1-1-.66-.62-1.32-1.24-2-1.87-2-2.13-2-2.13-2-4.13-.59-.26-1.19-.52-1.81-.79-2.32-1.28-3.48-2.47-5.12-4.52-3.04-3.69-6.25-7.12-9.88-10.25-1.19-1.44-1.19-1.44-1.19-5.44 2-1 2-1 3.92-.75M515.125 101.063c2.42 1.21 2.78 2.53 3.88 4.94a439 439 0 0 1-34 29c3.77 5.82 7.89 11.4 12 17 3.47-1.27 6.24-2.72 9.18-4.94.78-.58 1.55-1.16 2.35-1.76.81-.62 1.63-1.23 2.47-1.86 1.69-1.27 3.4-2.53 5.1-3.79 2.32-1.74 4.65-3.47 6.97-5.21 1.76-1.31 3.52-2.6 5.3-3.88.98-.72 1.95-1.44 2.96-2.18 2.67-1.38 2.67-1.38 5.52-1.11.35.12.35.12 2.15.73.16.66.16.66 1 4-4.85 4.04-9.68 7.89-15.07 11.18-7.47 4.62-14.3 10.11-21.21 15.51-4.36 3.31-4.36 3.31-6.72 3.31-2-1-2-1-3.26-3.56-2.02-3.97-4.49-6.35-7.67-9.42-2.88-2.81-5.73-5.74-8.07-9.02v-2h-2c-.17-.5-.17-.5-1-3a291 291 0 0 1 25.62-23.03c2.38-1.97 2.38-1.97 4.56-4.23 1.82-1.74 1.82-1.74 3.82-1.74v-2c2.07-2 3.19-3.03 6.12-2.94M76 117c5.06 1.56 8.52 4.65 12.5 8 1.42 1.18 2.85 2.36 4.28 3.54.35.29.35.29 2.15 1.77 2.99 2.44 6.05 4.79 9.13 7.13 4.45 3.39 8.75 6.86 12.94 10.56l-1 5-3 1c-2.51-1.6-4.79-3.23-7.12-5.06-.7-.54-1.4-1.07-2.12-1.63-6.08-4.69-12.03-9.56-17.91-14.5-4.16-3.48-8.4-6.71-12.85-9.81.57-2.87.86-3.86 3-6M76 138l2 2c-.19 2-.19 2-1 4l-3 2-2-1c-7.14-.58-7.14-.58-10.44 1.62-1.98 3.02-2.56 4.76-2.56 8.38 3.45 8.26 10.19 13.5 18.14 17.27 5.54 2.17 11.14 2.65 16.8.73 2.47-2.4 3.08-4.39 3.35-7.81-.45-3.4-2.19-5.66-4.26-8.33C92 155 92 155 92.34 152.77c.22-.59.44-1.17.66-1.77l4-1c4.96 5.41 8.29 9.18 8 16.81-.71 5.63-3 9.25-7 13.19-5.17 3.84-10.81 3.74-17 3-10.56-2.57-20.93-10-27-19-3.19-5.55-3.62-9.91-2-16 2.76-5.31 6.68-9.65 12.31-11.94 4.03-.09 7.87.66 11.69 1.94M548 146c4.42 2.21 7.19 4.95 10 9 1.68 5.05 1.9 10.07-.38 14.94C556 172 556 172 554 174c-2.62.12-2.62.12-5 0-1-3-1-3 .5-6.25 1.78-3.87 1.7-6.6.5-10.75-2.3-2.64-3.58-2.96-7.06-3.31C540 154 540 154 537 156c-.19 2.32-.19 2.32.07 5.2.07 1.04.14 2.09.22 3.17.18 2.19.37 4.39.56 6.58.46 6.72.37 10.66-3.85 16.05-4.24 3.63-9.42 4.67-14.9 4.38-4.74-.86-7.87-3.83-10.98-7.32-3.42-5.12-2.95-11.18-2.12-17.06 1.46-3.81 3.59-5.73 7-8 2.19.38 2.19.38 4 1 .75 1.69.75 1.69 1 4-.62.76-1.24 1.53-1.88 2.31-2.64 3.35-3.04 5.45-3.12 9.69 1.14 2.38 2.14 4.14 4 6 4.47.63 7.88.8 11.62-1.88 2.35-5.33 1.18-10.71-.62-16.12-.38-4.67-.48-7.04 1.62-11.25 5.4-6.25 10.29-8.05 18.38-6.75M307.125 166.188c2.04 1.37 2.04 1.37 3.88 2.81.3.24.3.24 1.87 1.45 1.41 1.14 2.77 2.34 4.13 3.55.17-.24.17-.24 1.05-1.47 4.39-3.45 11.63-2.12 16.95-1.53 5.86 2.07 9.29 6.2 13 11 .8.75 1.6 1.49 2.43 2.25 3.59 3.85 5.96 8.21 8.57 12.75.38.59.76 1.18 1.16 1.78 3.76 5.86 5.84 13.27 5.84 20.22.74.29 1.48.58 2.24.88 7.23 2.95 7.23 2.95 9.76 7.12v3c.99.17.99.17 6 1 .1.64.2 1.28.31 1.94.69 3.06.69 3.06 1.42 4.87 1.98 4.94 2.64 9.64 2.77 14.94.01.63.01.63.09 3.8-.75 4.36-2.26 5.63-5.59 8.45-3.71 3.23-4.75 5.68-5.94 10.44-1.53 5.37-2.67 8.18-7.06 11.56-.48.49-.95.98-1.44 1.49-5.24 5.07-11.83 6.1-18.83 6.82-4.02 1.02-5.77 3.23-8 6.61-.33.61-.65 1.21-.99 1.83-.57 1.07-1.15 2.15-1.74 3.25 3.94 3.55 7.9 6.99 12.18 10.13 8.56 6.38 8.56 6.38 9.44 11.53.07.55.07.55.38 3.34-.95.59-1.89 1.17-2.86 1.77-19.71 12.45-31.31 27.99-40.75 49.18-4.13 9.17-4.13 9.17-7.39 11.05-3.05-.3-5.53-.76-8.44-1.56-1.62-.4-3.23-.81-4.84-1.21-.8-.21-1.6-.42-2.42-.64-2.09-.53-4.19-1.02-6.31-1.47-8.74-1.86-8.74-1.86-10.99-4.12-1.05-9.76 3.39-18.22 9-26 .65-.66 1.31-1.32 2-2-.33-3.71-1.45-6.05-3.67-9-.54-.74-1.08-1.47-1.64-2.23-.58-.77-1.16-1.54-1.76-2.33l-3.55-4.81c-.58-.79-1.15-1.57-1.75-2.38-2.88-3.96-5.56-8.05-8.24-12.16-1.39-2.09-1.39-2.09-2.39-3.09-1.83-.21-3.67-.36-5.5-.5-5.39-.39-5.39-.39-6.5-1.5-3.59-.46-7.18-.83-10.78-1.2-3.22-.8-3.22-.8-4.64-2.51-.7-2.72-.87-5.23-.96-8.04-.33-4.88-1.19-8.07-3.67-12.24-1.16-2.44-1.38-4.64-1.71-7.32-.41-2.54-.41-2.54-1.24-4.69-2.68-1.83-4.77-2.27-8-3-.18-6.2.29-11.61 1.74-17.62.18-.78.36-1.57.55-2.37 1.12-4.82 2.44-9.57 3.83-14.32 2.15-7.82 2.78-15.63 3.45-23.7 1.79-21.89 1.79-21.89 7.43-27.99h2v-2h2c.06-1.09.12-2.18.18-3.31.82-3.69.82-3.69 2.94-5.38.95-.43 1.9-.86 2.88-1.31 1.21-.67 2.42-1.36 3.62-2.06 1.11-.64 2.23-1.28 3.38-1.94l3-2c2.48-.19 2.48-.19 5.18-.12.9.02 1.8.03 2.73.05.69.03 1.38.05 2.09.07.32-1.65.65-3.3 1-5l3-1v-2c10.47-4.01 23.58-7.42 34.12-1.81m-34.12 8.81-2 4c.6.15.6.15 3.68.88 6.4 1.62 6.4 1.62 9.32 3.12.32.99.65 1.98 1 3 5.37 4 5.37 4 8 4v2c1.65 1.35 3.32 2.68 5 4 1.31 1.5 2.58 3.05 3.81 4.63.34.44.34.44 2.08 2.67.69.89 1.39 1.78 2.11 2.7 1.33 1.63 2.66 3.25 4 4.88 7.78 9.81 13.51 19.71 18.22 31.25.78 1.88 1.59 3.75 2.4 5.61 1.01 2.4 1.86 4.63 2.5 7.14.88 3.12.88 3.12 1.88 4.12.15 1.87.27 3.75.37 5.63.37 5.14 1.25 8.83 3.63 13.37h2c.2-5.13-.46-9.12-2-14-.16-.63-.16-.63-.94-3.81-1.76-7.04-3.62-13.71-7.04-20.14-1.12-2.24-2.01-4.51-2.9-6.86-3.17-8.04-6.73-15.26-13.12-21.19a200 200 0 0 1-3.38-4.31 228 228 0 0 0-7.44-9.25c-.56-.66-1.12-1.32-1.7-2-1.48-1.44-1.48-1.44-3.48-1.44-.23-.56-.46-1.11-.69-1.69-4.57-8.02-14.63-15.46-23.57-17.93-.58-.12-1.15-.25-1.74-.38m46 1-1 3c.56.47 1.13.94 1.71 1.43.73.62 1.47 1.24 2.22 1.88.73.62 1.46 1.23 2.22 1.87 1.85 1.82 1.85 1.82 2.85 4.82h2l1.18 3.75c1.97 5.89 4.36 11.56 6.82 17.25.43 1.05.87 2.1 1.32 3.18.43.99.86 1.99 1.3 3.01.38.9.77 1.8 1.16 2.73 1.22 2.08 1.22 2.08 4.22 3.08-.09.64-.17 1.28-.26 1.94.31 3.78 1.65 6.49 3.28 9.88 2.34 5.24 2.26 10.59 2.4 16.25.2 4.42.8 7.44 3.58 10.93h2c.52-10.23.28-19.71-2.26-29.69l-.61-2.45c-1.46-5.34-3.53-9.99-6.13-14.86h-2c-.05-.41-.05-.41-.26-2.52-.9-4.21-2.63-7.39-4.74-11.1-4.13-7.32-4.13-7.32-5-11.38 1.15-.16 1.15-.16 7-1-1.32-1.93-1.32-1.93-4-4-2.58-.31-2.58-.31-5.5-.43-5.22-.28-5.22-.28-7.94-3-.52-.85-1.03-1.7-1.56-2.57-2.26-1.31-2.26-1.31-4-2m-29 1-1 4c2.17 1.09 3.72 1.28 6.13 1.54.8.08 1.61.17 2.44.26.84.09 1.68.18 2.55.27.85.09 1.7.18 2.57.27l6.31.66c-1.46-3.84-3.28-5.3-7-7-3.12-.29-3.12-.29-6.32-.19l-3.24.09c-.8.03-1.61.07-2.44.1m-28.19 3.94c-.6.35-1.2.7-1.81 1.06v3c2.37-.31 2.37-.31 5-1 .65-.99 1.31-1.98 2-3-3-1-3-1-5.19-.06m11.19 5.06-1 2c2.63.66 5.27 1.32 8 2l-1-4zm9 3-2 2c.82.33.82.33 5 2l-1-4zm23 3c.98 2.69 1.65 3.8 4.16 5.24 3.48.94 6.55.95 10.15.89l3.8-.06c.95-.02 1.9-.04 2.89-.07l-1-2c-2-.22-3.99-.44-6-.56-2-.44-2-.44-3.47-1.96-1.53-1.48-1.53-1.48-3.8-1.77-.4.02-.4.02-2.42.1l-2.45.09c-.62.03-1.23.07-1.86.1m-39 1c1 2 1 2 3.81 3.13 3.19.87 3.19.87 7.19.87v-2c-3.83-1.8-6.79-2.19-11-2m16 2-1 4c.86.29 1.73.58 2.62.88 2.18.72 4.35 1.49 6.5 2.31 2.88.81 4.13.87 6.88-.19-4.72-4.02-8.67-7-15-7m68 4c.33 4.62.65 9.24 1 14 .65.17.65.17 4 1 1-1 1-1 1.24-4.12-.28-4.42-1.32-6.95-3.24-10.88zm-72 6c1 3 1 3 3.37 4.25 2.63.75 2.63.75 5.63-.25-3.33-3.94-3.33-3.94-6.76-4.25-.37.04-.37.04-2.24.25m38 0v3c2.93 2.94 6.18 2.46 10.12 2.63.75.04 1.51.07 2.29.11 1.86.1 3.72.18 5.59.26-2-3-2-3-4.43-3.69-.95-.14-1.91-.29-2.89-.43-.47-.08-.47-.08-2.86-.45-.47-.07-.47-.07-2.82-.43-1.67-.32-3.34-.65-5-1m-29 5c.32.99.65 1.98 1 3 .47.14.47.14 2.87.81 1.03.4 2.06.79 3.13 1.19l1.12 2.94c1.88 3.06 1.88 3.06 4.65 4.05 2.16.5 4.33.96 6.51 1.37 2.72.64 2.72.64 4.72 2.64 2.62-.37 2.62-.37 5-1-2.55-2.92-4.23-4.77-8-5.87-2.89-.12-5.22.14-8 .87l-.69-6.15c-.31-1.85-.31-1.85-1.31-2.85-1.85-.23-3.71-.41-5.57-.56-1.01-.08-2.02-.17-3.06-.25-.4-.03-.4-.03-2.37-.19m-47 2c-1.33 6.43-2.25 12.43-2 19 .77-.15 1.55-.3 2.35-.46 10.4-1.5 15.85 1.41 24.65 6.46l3 1c-.17.83-.17.83-1 5-.77-.35-1.53-.7-2.32-1.06-2.68-.94-2.68-.94-5.68.06 1.31 1.32 2.63 2.64 4 4-.5 2.81-.5 2.81-2 6-3.8 2.51-7.27 3.04-11.76 2.81-2.74-.68-4.89-1.27-7.24-2.81-1.17-2.34-1.17-3.83-1.19-6.43-.02-.79-.03-1.57-.05-2.38.24-2.19.24-2.19 2.24-5.19-2.32-.31-2.32-.31-5 0-3.08 3.42-3.56 7.32-4.33 11.7-1.09 5.35-2.57 10.61-4 15.88-.21.8-.43 1.6-.65 2.42q-.3 1.08-.6 2.19c-.42 1.81-.42 1.81-.42 3.81 1.41.06 2.83.1 4.24.13.79.02 1.58.04 2.4.07 2.58-.22 4.09-.99 6.36-2.2 2.74-.12 2.74-.12 5 0v7l-9 3c.33 1.32.65 2.64 1 4 2.52 1.26 4.31 1.1 7.12 1.07l2.76-.03c.7-.01 1.4-.03 2.12-.04.65 1.65 1.31 3.3 2 5-1.66.33-1.66.33-10 2 .5 3.99 1.13 7.93 1.93 11.88.16.76.31 1.52.47 2.3.19.6.39 1.2.6 1.82 2.96 1.48 5.6 1.1 8.9 1.07.34-.01.34-.01 2.06-.02 2.18-.01 4.36-.03 6.54-.05l8.59-.06c1.27-.01 2.55-.02 3.86-.04 3.05.1 3.05.1 5.05 1.1-.19 2.38-.19 2.38-1 5-2.57 1.31-2.57 1.31-5 2 1.81 4.07 4.4 7.61 6.93 11.25.99 1.43 1.98 2.87 2.98 4.3 1.03 1.48 2.06 2.97 3.09 4.45 1.96 2.83 3.91 5.67 5.87 8.5.44.64.88 1.27 1.33 1.92 3.07 4.45 5.97 8.98 8.8 13.58 2.35-2.36 2.49-3.78 3-7 1.93-.56 1.93-.56 4-1 1 1 1 1 1.09 4.16l-.06 7.82-.03 3.02c3.99-3.62 6.84-7.89 9.87-12.31 8.15-11.87 17.07-22.01 30.13-28.69-1.19-3.56-1.95-3.82-5.07-5.69-5.96-3.84-12.12-8.25-14.5-15.18-.47-1.03-.95-2.06-1.43-3.13-2.32-.71-4.66-1.38-7-2-4.79-4.9-4.77-10.48-5-17-2.32-.63-2.32-.63-5-1-.97.68-1.94 1.36-2.94 2.07-3.06 1.93-3.06 1.93-6.32 1.31-2.74-1.38-2.74-1.38-4.74-3.38-.13-3.62-.13-3.62 0-7 1.03.11 2.06.21 3.12.31 5.12-.41 6.38-1.64 9.88-5.31.87-2.31.87-2.31 1-4-3.66 1.25-4.79 1.67-7 5-2.13.69-2.13.69-4 1 .09-.61.19-1.23.28-1.86.11-.81.23-1.62.34-2.45.06-.4.06-.4.35-2.43.03-2.26.03-2.26-1.97-5.26-2.32-.73-4.66-1.39-7-2-3.62-1.36-4.43-2.55-6-6-.58-.68-1.16-1.36-1.76-2.06-2.04-2.67-3.33-5.07-4.81-8.06-3.63-6.87-8.82-11.63-14.43-16.88-.8-.83-1.59-1.67-2.41-2.52-2.99-2.85-6.11-4.98-9.59-7.17-.61-.38-1.21-.77-1.83-1.18-8.07-5.13-8.07-5.13-13.17-5.13m38 5v2h4v-2zm7 3c.97 3.28 1.69 4.76 4.43 6.88 2.57 1.12 2.57 1.12 5.57.12h-2c-.11-.78-.21-1.56-.32-2.37-.68-2.63-.68-2.63-3.68-4.63zm42 1c1.66 3.33 4.62 3.8 8 5 2.43-.31 2.43-.31 4-1-1.7-2.04-2.64-2.92-5.27-3.51l-2.42-.18c-.41-.03-.41-.03-2.45-.19zm-27 6c.32.66.65 1.32 1 2h2v2c2.63.33 5.27.66 8 1-2-3-2-3-4.17-3.73-.81-.15-1.62-.3-2.46-.46-.41-.07-.41-.07-2.48-.48-.31-.05-.31-.05-1.89-.33m-9 4v4c1.64-.33 3.3-.66 5-1-1.38-1.5-1.38-1.5-3-3zm70 1v2c2.97.33 5.93.66 9 1 .33-.66.65-1.32 1-2h-2c-.34-.99-.66-1.98-1-3-2.65 0-4.59.98-7 2m-28 0c.64 3.5 1.9 6.13 4 9 2.18.81 2.18.81 4 1 .74-2.19.74-2.19 1-5-1.63-2.81-1.63-2.81-4-5-2.76-.31-2.76-.31-5 0m-21 6-1 4h8l-2-4zm-19 3c.12 1.8.12 1.8 1 4 2.68 1.67 2.68 1.67 6 3.19 5.96 2.78 5.96 2.78 7 3.81 1.61.37 3.24.7 4.87 1 2.82.53 5.4 1.09 8.13 2v-2c.65-.33 1.31-.66 2-1-5.28-3.52-10.62-5.38-17-5-.27-.62-.54-1.24-.82-1.87-1.18-2.13-1.18-2.13-4.18-4.13a96 96 0 0 0-7 0m75.81 8c-.6.66-1.2 1.32-1.81 2 .33.99.65 1.98 1 3 2.97-1.32 5.93-2.64 9-4-1-.99-1.99-1.98-3-3-3 0-3 0-5.19 2m-44.81 8c.32 1.65.65 3.3 1 5 1.64-.33 3.3-.66 5-1v-2c-1.99-.66-3.96-1.32-6-2m-9 2v3c.65.17.65.17 4 1v-3zm11 7c-.33.17-.33.17-2 1v3c2.63.66 5.27 1.32 8 2-1.38-2-1.38-2-3-4h-2zm18 3c.32 1.65.65 3.3 1 5 1.64.33 3.3.66 5 1v-5c-1-.16-1-.16-6-1m21.87 11.5c-.47.42-.47.42-2.87 2.5.33.66.65 1.32 1 2l6-2c.33-1.65.65-3.3 1-5-2.59 0-3.21.83-5.13 2.5m-73.87 82.5c-3.97 5.01-5.8 8.73-7 15 3.66 2.46 6.64 3.54 11 4.19 1.01.16 2.02.32 3.06.48 2.68.3 5.24.4 7.94.33.67-1.6 1.33-3.2 2-4.81.37-.89.74-1.79 1.12-2.71.88-2.48.88-2.48.88-5.48-.62.17-1.24.33-1.88.5-4.38.7-8.7.58-13.12.5-.29-1.13-.58-2.27-.88-3.43l-1.12-3.57zM139 170c4.36 2.22 7.13 4.44 9 9 .44 4.07.3 8.09-1 12 .62.27 1.24.54 1.88.81C151 193 151 193 153 196c.2 3.14.2 3.14.12 6.69-.01 1.18-.03 2.36-.05 3.57-.02.91-.05 1.81-.07 2.74.76-.32 1.51-.63 2.29-.96 10.04-3.85 23.62-3.33 33.71-.04v2c.5.16.5.16 3 1 1.07 2.11 1.07 2.11 2.12 4.75 2.39 5.11 4.73 6.64 9.72 8.96 3.57 2.12 5.68 5.45 7.16 9.29l-1 2c-.5-.16-.5-.16-3-1v-2c-.7.12-1.4.25-2.12.38-3.82-.5-4.88-2.18-7.42-4.91-2.05-2.06-3.61-2.86-6.46-3.47-1.84.23-3.69.47-5.53.72-4.97.56-9.97.66-14.97.84-1.11.05-2.22.09-3.36.13-2.71.11-5.43.21-8.14.31 1.83 7.34 1.83 7.34 2.75 10.95 1.85 7.33 3.57 14.68 5.25 22.05.38.04.38.04 2.31.26 10.21 1.39 17.65 4.35 24.24 12.5 3.55 5.5 5.27 11.7 4.01 18.18-2.35 8.61-5.61 14.3-12.56 20.06l-2 1c.46 2.69.95 5.36 1.47 8.04.53 2.96.53 2.96.69 5.3.22 2.04.22 2.04 1.84 5.66 2.91 1.5 5.85 2.56 8.94 3.64 5.13 2.27 8.57 6.38 11.06 11.36.53 5.28.64 9.67-1.69 14.5C203 363 203 363 198 366l2 15c1.88.41 3.75.82 5.69 1.25 7.17 1.84 10.42 4.19 14.62 10.25 3.27 5.72 3.96 11.04 2.69 17.5-2.4 3.39-4.65 4.79-8.19 6.94-2.81 2.06-2.81 2.06-3.62 5.12-1.19 2.94-1.19 2.94-3.13 4.06-3.53 1.31-6.13 2.05-9.87 1.38-2.78-1.91-4.32-3.68-6.19-6.5-.54-3.63-.54-3.63-.62-7.56-.2-7.65-.2-7.65-2.38-11.44-.39-2.32-.73-4.66-1-7-.72-.23-1.45-.46-2.2-.7-7.3-2.46-12.35-4.54-16.68-11.18-1.73-4.83-1.73-8.41 0-13.24 1.64-2.51 2.73-3.71 5-5.5C177 362 177 362 178 360.12c0-3.22-1.07-6.05-2-9.12v-4c-.46-.04-.46-.04-2.82-.26-12.91-1.47-12.91-1.47-18.18-6.74-2.73-4.76-3.66-8.55-3-14 2-6.37 5.55-11.38 9.71-16.54 1.72-3.28 1.2-4.92.29-8.46-.23-.93-.45-1.86-.68-2.82-.25-.95-.5-1.89-.76-2.87-1.46-5.73-2.58-11.48-3.56-17.31-.81-.03-1.62-.05-2.46-.08-11.34-.58-21.1-2.96-29.54-10.92-4.95-5.86-6.34-12.4-5.94-19.94 1.55-10.74 7.38-17.06 15.21-24.06 4.62-4.27 4.62-4.27 5.22-8.32-.57-3.09-1.02-3.81-3.49-5.68-.89-.6-1.77-1.2-2.69-1.81-2.31-2.19-2.31-2.19-2.69-5.25C131 199 131 199 132 196c-1.09-.52-2.19-1.03-3.31-1.56-2.95-1.71-3.81-2.62-5.75-5.63-1.2-4.86-1.02-8.25 1.06-12.81 4.16-5.57 8.24-7.07 15-6m-7 8c-1.19 2.19-1.19 2.19-2 5 1.19 2.75 1.19 2.75 3 5 3 1 3 1 5.12.31 1.88-1.31 1.88-1.31 2.82-3.12.09-3.26-.83-4.74-2.94-7.19-3.19-.31-3.19-.31-6 0m3 22v3q1.14.375 2.31.75c3.03 1.41 3.92 2.47 5.69 5.25.59 1.98.59 1.98.94 4.19 1.83 10.28 4.19 20.57 7.35 30.53.51 1.66 1 3.32 1.46 5 .24.9.49 1.79.75 2.72.22.8.43 1.6.66 2.43.92 2.32 1.97 3.51 3.84 5.13.5-.16.5-.16 3-1-.63-5.97-1.76-11.63-3.25-17.44-.22-.86-.44-1.73-.66-2.62-2.44-9.48-5.07-18.93-8.19-28.21-.97-2.94-1.62-5.65-1.9-8.73l2-2-2-4c-5.89-.7-8.03.94-12 5m37 13-2 2c1 1 1 1 4.56 1.06L178 216l1-2c-3.38-.62-3.38-.62-7-1m-28 23c-3.25 3.31-5.73 6.61-6.62 11.19.95 4.29 3.03 6.72 6.62 9.19 2.4.75 3.62.3 6-.38-.57-6.96-2.01-13.31-4-20zm18 42c-.2 4.3.32 7.07 2 11 .69 2.66 1.36 5.33 2 8 .83 3.42 1.66 6.83 2.5 10.25.21.88.43 1.77.64 2.68.21.85.42 1.71.64 2.59.19.76.37 1.53.57 2.32.67 2.21 1.59 4.11 2.65 6.16.4 1.53.75 3.07 1.06 4.62.48 2.36.86 4.23 1.94 6.38h5c0-2.65-.28-4.6-.88-7.15-.2-.83-.39-1.66-.59-2.52-.22-.89-.43-1.78-.65-2.71-.23-.92-.45-1.85-.68-2.8-1.64-6.72-3.39-13.41-5.26-20.07-.24-.84-.47-1.69-.71-2.56-1.61-5.63-3.72-10.89-6.23-16.19zm11 3c.99 4.84 1.96 9.48 4 14l3-1c1.55-5.95 1.55-5.95.06-8.8-1.31-1.64-1.31-1.64-4.06-4.2zm8 65c-1.37 3.7-.47 5.45 1 9 .44 1.63.85 3.26 1.22 4.91.21.91.42 1.81.64 2.75.43 1.89.85 3.79 1.28 5.68.21.91.42 1.82.64 2.75.19.83.37 1.65.57 2.49.69 2.57 1.62 4.97 2.65 7.42h5c-.67-6.34-1.9-12.43-3.38-18.62-.1-.46-.1-.46-.63-2.78-1.16-4.92-2.49-9.2-4.99-13.6zm15 48c-.33.16-.33.16-2 1 .64 5.69 1.56 11.23 2.81 16.81.16.75.31 1.5.47 2.27.74 3.29 1.32 5.52 3.73 7.93 1.99.99 1.99.99 3.99.99-.11-1.92-.24-3.83-.38-5.75-.06-1.07-.13-2.13-.21-3.23-.39-2.88-1.06-4.51-2.41-7.02-.33-1.49-.62-2.99-.88-4.5-.8-3.92-1.85-5.99-5.12-8.5m9 3c.31 1.05.62 2.1.94 3.19.82 2.94 1.51 5.81 2.06 8.81h2v-2h2c.4-3.48.12-4.81-1.81-7.81L208 397zM40 174c4.49.56 7.98 1.73 12.04 3.73 1.14.56 2.28 1.11 3.45 1.69.59.29.59.29 3.57 1.77 2.33 1.14 4.65 2.28 6.98 3.42.57.28.57.28 3.46 1.71a194 194 0 0 0 7.2 3.3c.58.26.58.26 3.55 1.56 1.05.44 2.11.89 3.2 1.36 2.74 1.57 3.52 2.53 4.55 5.46-1.19 1.56-1.19 1.56-3 3-4.43-.42-8.21-2.34-12.17-4.24-.68-.32-1.37-.64-2.07-.97-2.17-1.03-4.34-2.07-6.51-3.1-2.15-1.02-4.3-2.04-6.46-3.06l-4.14-1.98c-3.66-1.74-7.34-3.36-11.1-4.88C39 181 39 181 38.15 179.08 38 177 38 177 40 174M456 177c1.05 3.98.84 6.98 0 11l4 3c.47-.78.94-1.56 1.43-2.37.62-1.01 1.24-2.02 1.88-3.07.62-1.01 1.23-2.02 1.87-3.06C467 180 467 180 470 179c4.26 3.12 4.85 6.54 5.8 11.46.21 2.73-.26 4.88-.8 7.54.16.5.16.5 1 3 .33-.16.33-.16 2-1 .41-2.07.41-2.07.62-4.56.08-.83.15-1.66.23-2.51.03-.32.03-.32.15-1.93.99.16.99.16 6 1 1.59 10.92 1.59 10.92-2 16 .2 2.74.68 4.48 2.12 6.81 1.01 2.52.79 3.67.38 6.31-.17 1.28-.33 2.56-.5 3.88l2 2c-.38 2.63-.38 2.63-1 5-3 1-3 1-5.19.06-.6-.35-1.19-.7-1.81-1.06v-2c-.66-.16-.66-.16-4-1 .5-2.24 1.08-4.16 2.06-6.25 1.27-3.72 1.07-6.83.94-10.75h-2l-2-3-1 3h2c.16.82.16.82 1 5l-5 1 1 2c1.25 2.81 1.25 2.81 2 6-.94 1.7-1.95 3.37-3 5-.55 2.68-.77 5.27-1 8-3.05-.34-4.77-.83-7.25-2.69-2.2-2.91-2.75-4.66-2.75-8.31 1.94-2.75 1.94-2.75 4-5v-2c-3 0-3 0-4.5 1.31-.5.56-.99 1.12-1.5 1.69l-1.56 1.38c-1.8 2.02-2.55 4.08-3.44 6.62l-5-1c-1.21-6.28-1.21-6.28-.31-9.38 1.63-2.01 2.78-2.28 5.31-2.62.12-2.38.12-2.38 0-5l-2-2c-.55-2.74-.38-4.38 1.09-6.78.88-1.21 1.79-2.4 2.72-3.57C456 199 456 199 457 196h-6v2c-.25 3.2-.72 6.05-2 9-1.97 1.6-3.98 2.71-6.22 3.91-1.78 1.09-1.78 1.09-2.84 3.34.07 3.3.47 6.5 1 9.76L441 226l-2 2h-3c-3.68-5.52-4.28-11.51-3-18 1.93-2.71 4.05-4.48 7-6h2l2-5h-2l-1-5h-4c-.14 1.22-.29 2.43-.44 3.69-.09.73-.19 1.46-.29 2.21-.21 1.63-.4 3.27-.58 4.91-.92 2.92-2.1 3.6-4.69 5.19-2.58.51-2.58.51-5.25.69-.89.06-1.78.13-2.7.2-.34.02-.34.02-2.05.11v2l3 1c.36 3.27.3 4.6-1.71 7.28-.74.73-1.47 1.47-2.23 2.22-3.03 3.04-4.95 5.07-5.06 9.5 1.16 1.81 1.16 1.81 3 3 2.09.22 2.09.22 4.38.06 3.74-.1 6.33-.07 9.62 1.94l2.06 2.88c4.22 5.36 11.82 6.68 18.28 7.59 3.36.29 6.72.5 10.1.65 2.27.13 4.54.25 6.81.39.98.05 1.97.09 2.99.14 2.88.37 5.09 1.23 7.76 2.35 2.81.12 2.81.12 5 0-.29-.87-.58-1.73-.88-2.62-.37-1.12-.74-2.23-1.12-3.38-.39-1.01-.78-2.02-1.19-3.06-.86-3.14-.72-4.86.19-7.94 1.88-.62 1.88-.62 4-1 2.29 2.29 2.42 3.27 3 6.38.47 2.48.92 4.46 2.06 6.72.94 1.9.94 1.9.94 4.9l2 1c-3.25 3.62-5.14 5.5-10 6-2.79-.38-2.79-.38-5.62-1-5.06-1.11-5.06-1.11-8.38 0-1.43 1.64-1.43 1.64-2.88 3.69-1.79 2.52-3.53 4.75-5.67 7-3.16 3.78-3.88 7.82-4.83 12.56-.41 1.88-.82 3.76-1.24 5.64-.22.99-.43 1.98-.66 3.01-1.25 5.41-2.75 10.75-4.22 16.1-2.11 7.72-4.13 15.45-5.94 23.25-2.89 12.44-6.26 24.76-9.58 37.09-1.47 5.51-2.92 11.02-4.36 16.54-.11.45-.11.45-.72 2.76-.98 3.79-1.96 7.57-2.9 11.37-1.16 4.67-2.39 9.33-3.62 13.99-.23.87-.46 1.74-.7 2.64L421 420c-3.48 1.01-4.84.94-8.06-.81q-1.005-.54-2.04-1.08c-1.67-.98-3.29-2.04-4.9-3.11 2.97-18.01 5.96-36.02 9.12-54 .13-.72.26-1.43.39-2.17 1.41-7.99 2.89-15.95 4.55-23.89 2.13-10.16 3.57-20.43 5.07-30.7 1.19-8.07 2.55-16.07 4.18-24.05 3.66-18.37 3.66-18.37-.19-25.07L427 252c-.1-.54-.1-.54-.62-3.25-1.38-2.75-1.38-2.75-3.51-3.68-2.61-.76-5.23-1.42-7.87-2.07-5.31-1.83-5.31-1.83-7.06-4.79-1.28-3.05-1.94-5.58-1.94-8.9 1.38-3.2 3.37-5.06 6-7.31h2c1.21-2.33 2.17-4.5 3-7h-2c-.88-2.69-.88-2.69-1-6 4.14-4.67 7.96-5.85 14-7-.25-1.03-.5-2.06-.75-3.12-.25-3.88-.25-3.88 1.44-7.26 2.41-2.73 2.97-2.95 6.31-3.62.7-1.31 1.36-2.65 2-4 5.17-6.39 11.06-7.4 19-7m-10 7c-.62 2.31-.62 2.31-1 5 .33.5.33.5 2 3h2v-8zm21 5c-2.77 4.03-4.41 6.48-3.75 11.44.25 1.17.5 2.35.75 3.56h-4c-2.15 3.22-2.38 4.27-2 8l2 2c4.56-.56 4.56-.56 6-2 .37-1.93.7-3.87 1-5.81.91-5.85.91-5.85 1.56-8.34.7-2.94.5-5.85.44-8.85zm-23 5v5h1v-5zm-8 58 .94 2c1.31 3.7 1.66 7.09 2.06 11h3v-11zm10 5c-.12.61-.24 1.23-.37 1.86-.16.81-.33 1.62-.51 2.45-.16.8-.32 1.6-.49 2.43C444 266 444 266 442 269c-.34 2.59-.34 2.59-.5 5.5-.21 3.84-.31 5.22-2.5 8.5-.34 2.74-.34 2.74-.5 5.88-.21 4.21-.94 7.23-2.5 11.12-.35 3.06-.5 6.09-.66 9.16C435 312 435 312 434 314c-1.34 2.68-1.35 5.02-1.5 8-.28 5.56-.28 5.56-1.43 7.86-1.65 3.3-2.08 6.84-2.69 10.45-.14.74-.27 1.47-.41 2.23-.79 4.55-1.1 8.84-.97 13.46 2.53-2.53 2.65-4.2 3.38-7.69 1.09-5.04 2.32-10.02 3.68-15 1.32-4.87 2.45-9.7 3.38-14.65.98-4.64 2.29-9.19 3.56-13.75.76-2.85 1.37-5.7 1.93-8.59 1.39-7.13 3.19-14.17 4.95-21.22 1.39-5.7 2.55-11.25 3.12-17.1zm-9 12v11h2v-11zm-12 91-1 9c2.29-3.44 2.18-4.99 2-9zm-3 16 1 3ZM569.875 186.125c.7.62 1.4 1.24 2.12 1.88.93.78 1.86 1.56 2.82 2.37 3.19 4.02 2.81 8.62 2.6 13.55-.58 4.28-1.27 6.1-4.42 9.08-3.24.87-3.24.87-6 1-.74-2.07-.74-2.07-1-5 1.03-1.76 2.05-3.52 3.13-5.24.87-1.76.87-1.76.87-5.02-1.17-3.24-1.9-4.24-5-5.74-5.15-.64-5.15-.64-7.66 1.24-1.69 2.22-1.69 3.41-1.67 6.18-.01.86-.03 1.72-.04 2.61 0 1.79.01 3.59.02 5.39-.11 6.49-1.33 9.68-5.65 14.58-4.93 3.56-10.1 3.84-16 3-4.27-1.56-7.79-3.95-10-8-1.74-5.56-1.77-11.78.13-17.26 2.37-3.47 4.34-5.41 7.87-7.74 2.88.18 2.88.18 5 1 .32 2.24.32 2.24 0 5-2.43 2.18-2.43 2.18-5 4-1.6 3.21-1.46 6.51-1 10 1.57 3 1.57 3 4 5 3.44.62 3.44.62 7 0 2.79-2.03 4.72-3.6 5.43-7.08.15-2.45.17-4.85.14-7.3-.07-6.76.35-11.07 4.43-16.62 4.82-3.58 12.54-2.97 17.88-.88M65.523 201.574c5.04 3.72 10.57 7.97 11.88 14.41.3 6.62-.65 16.37-4.7 21.73-1.7 1.29-1.7 1.29-3.67 1.3-7.62-1.81-15.07-4.08-22.53-6.45l-7.53-2.37c-1.19-.38-2.37-.76-3.59-1.15-2.15-.66-4.31-1.29-6.48-1.86-.91-.24-1.81-.47-2.75-.72-.78-.19-1.57-.38-2.38-.58-1.77-.88-1.77-.88-2.57-2.81-.72-7.32 4.15-15.56 8.3-21.3 9.18-10.86 25.54-6.74 36.02-.2m-31.52 5.43c-2.11 3.19-3.97 6.16-4.04 10.07 1.7 3.16 4.81 3.77 8.04 4.86.7.25 1.41.51 2.14.76 5.31 1.85 10.66 3.55 16.04 5.18.71.22 1.42.43 2.14.65 3.65 1.06 6.87 1.73 10.68 1.48 1.55-5.82 2.3-12.4-.44-17.88-7.54-6.25-17.42-8.61-27.04-8.36-3.38.32-5.07.85-7.52 3.24M585 223c1.12 3.75 1.12 3.75 0 6-2.57.88-2.57.88-5.99 1.77-1.26.33-2.51.66-3.8 1-1.36.35-2.72.69-4.09 1.04-1.37.36-2.74.72-4.11 1.07-2.06.54-4.12 1.07-6.17 1.6-4 1.03-7.98 2.09-11.95 3.19-.88.24-1.75.48-2.65.73q-2.37.645-4.74 1.32c-5.16 1.39-5.16 1.39-8.5.28v-6c7.64-3.14 15.57-5.05 23.56-7.06l6.26-1.59 5.67-1.44c2.43-.63 4.84-1.32 7.24-2.05 3.53-.93 5.76-.72 9.27.14M19 237l5 1c-.07.52-.07.52-.44 3.12-.79 6.27-1.14 12.58-1.56 18.88l14 2c.1-1.65.21-3.3.31-5 .46-5.17 1.63-9.25 3.69-14 .83.16.83.16 5 1 1.31 4.3.46 7.94-.44 12.25-.15.75-.29 1.49-.44 2.26-.37 1.83-.74 3.66-1.12 5.49 1.06.06 2.12.12 3.21.18 1.39.09 2.78.17 4.17.26l2.11.12c5.28.33 5.28.33 7.51 1.44.06-.54.06-.54.37-3.25l.51-4.31c.07-.71.15-1.41.23-2.14.56-4.61 1.5-8.86 2.89-13.3l6 1c.21 5.65-.4 10.7-1.49 16.24-.48 2.61-.81 5.18-1.07 7.82C67 272 67 272 66 274c-7.22.23-13.9-.64-21-1.88-8.36-1.4-16.7-2.67-25.14-3.52-4.76-.5-4.76-.5-5.86-1.6-.6-6.11.13-12.3.81-18.38.07-.68.14-1.37.21-2.09.49-3.98 1.21-6.57 3.98-9.53M590 246c.16 1.49.16 1.49 1 9-8.38 3.52-16.8 6.95-25.25 10.31-1.14.46-2.28.91-3.45 1.38-2.77 1.1-5.53 2.21-8.3 3.31 6.7 1.53 13.38 2.93 20.17 3.98 1.07.17 2.15.34 3.25.52 2.16.33 4.33.65 6.49.97.5.07.5.07 3.04.47.9.13 1.8.26 2.73.4 2.63.75 3.71 1.46 5.32 3.66.19 3.19.19 3.19 0 6-7.8 3.04-15.32 3.89-23.62 4.62-2.56.25-5.11.49-7.67.73-1.12.1-2.24.2-3.4.31-3.45.35-6.87.85-10.31 1.34-2.68.11-5.32.05-8 0-.62-2.88-.62-2.88-1-6 2.85-2.85 5.97-2.68 9.81-3.06.76-.08 1.51-.17 2.29-.25 6.62-.71 13.26-1.25 19.9-1.69-9.32-2.27-18.63-4.41-28.08-6.05-4.82-.85-4.82-.85-5.92-1.95-.31-2.38-.31-2.38 0-5 3.13-2.96 6.65-4.08 10.69-5.44 4.87-1.68 9.59-3.46 14.25-5.67 2.63-1.14 5.33-2.01 8.06-2.89-.71.06-1.42.12-2.15.18-3.26.28-6.53.55-9.79.82-1.11.1-2.23.19-3.38.29-6.25.51-12.41.82-18.68.71-1.06-1.81-1.06-1.81-2-4l1-3q8.19-.87 16.38-1.71c1.85-.19 3.7-.38 5.55-.58 10.39-1.1 20.6-2.06 31.07-1.71M52.5 282.875c.52 0 .52 0 3.15-.01h2.88c.84 0 1.68 0 2.55.01 1.92.12 1.92.12 2.92 1.12v6c-9.9 1-19.8 1.99-30 3 9.97 2.8 19.93 5.58 30 8 1.12 4.76 1.12 4.76 0 7-2.21.93-2.21.93-5.1 1.88-1.05.35-2.1.69-3.18 1.05-.55.17-.55.17-3.34 1.07-1.09.36-2.17.72-3.28 1.08-5.34 1.75-10.68 3.44-16.1 4.92 3.47 1.08 6.64 1.11 10.26 1.07.6-.01.6-.01 3.64-.03.63 0 .63 0 3.79-.04l7.45-.06 3.33-.03c2.53.09 2.53.09 3.53 1.09.04 2 .04 4.01 0 6-2.48 1.25-4.13 1.13-6.91 1.12H55c-.55 0-.55 0-3.35-.02h-3.42l-10.85-.03c-2.45-.01-4.9-.01-7.35-.02-6.01-.01-12.02-.02-18.03-.05v-9c11.65-4.96 23.82-8.57 36-12-2.67-2.66-5.53-3.04-9.09-3.87-.35-.08-.35-.08-2.12-.52-2.24-.54-4.48-1.07-6.73-1.61-2.24-.53-4.48-1.06-6.71-1.6-1.39-.34-2.79-.67-4.18-1-3.22-.78-5.37-1.53-8.17-3.4-.66-6.07-.66-6.07 1.22-8.69 2.33-1.71 3.82-1.73 6.7-1.82.99-.03 1.99-.07 3.02-.1 1.07-.03 2.14-.05 3.25-.07 1.1-.04 2.2-.07 3.33-.1 7.99-.22 15.99-.31 23.98-.34M542 296c5.01.65 9.43 2.08 14.14 3.8.77.28 1.54.56 2.34.84l4.86 1.77c2.45.9 4.91 1.78 7.37 2.67 7.55 2.73 15.02 5.5 22.29 8.92.12 3.38.12 3.38 0 7-2.44 2.44-3.74 2.51-7.11 3.11-1.05.2-2.11.39-3.2.59-1.13.2-2.27.4-3.44.61-9.89 1.82-19.7 3.84-29.48 6.17-.85.2-1.7.4-2.58.6l-2.24.54C543 333 543 333 540 333l-1-7c4.62-2.08 9.1-3.7 14-5l1-12c-5.47-3.28-5.47-3.28-8.75-4.5-1.07-.5-2.14-.99-3.25-1.5-1.04-3.13-.93-3.99 0-7m20 14c-1 1-1 1-1.1 3.07.01.82.03 1.64.04 2.49.01.83.02 1.66.02 2.51.02.63.03 1.27.04 1.93 6.96.34 12.43-.7 19-3-3.44-3.03-6.86-4.01-11.25-5.19-1.26-.34-2.53-.69-3.83-1.04-.96-.25-1.93-.51-2.92-.77"/><path fill="#003da5" d="M553 347c3.45 3.21 4.9 7.43 5.19 12.06-.36 5.61-2.06 10.25-5.19 14.94-.71 2.32-1.38 4.65-2 7 1.03-.5 2.06-.99 3.12-1.5 3.46-1.45 6.1-2.17 9.88-1.5 2.44 2.12 2.44 2.12 4 5-.68 9.48-7.83 17.22-14 24-.59.69-1.18 1.38-1.79 2.1-.6.71-1.21 1.42-1.83 2.15-.28.32-.28.32-1.67 1.95-2.49 2.62-4.51 4.62-8.15 5.18-2.56.62-2.56.62-4.75 3.12-3.91 3.48-7.68 3.63-12.81 3.5l-2-1c-.62-2.06-.62-2.06-1-4-1.5 1.5-1.5 1.5-3 4 .03.63.03.63.19 3.81.13 3.52-.46 5.01-2.81 7.63-.55.56-1.09 1.12-1.65 1.7-3.7 3.98-7.01 8.69-8.73 13.86h3c1-2 1-2 1.31-3.88.98-3.01 2.2-4.12 4.69-6.12 2.2-1.05 4.41-1.99 6.68-2.88 2.32-1.12 2.32-1.12 4.71-3.1 5.17-4 13.13-6.66 19.73-5.96 4.31 1.41 4.31 1.41 5.88 3.94.99 2.92 1.43 4.92.27 7.84-1.74 3.15-3.62 5.72-6.27 8.16-.8 1.03-1.61 2.06-2.44 3.12-2.66 2.99-3.03 3.06-6.56 3.88-.41.72-.83 1.44-1.25 2.19-2.49 4-5.91 6.17-9.75 8.81-.4.3-.4.3-2.44 1.81-3.73 1.73-7.49 1.93-11.56 2.19-.06.61-.12 1.22-.18 1.86-.82 2.14-.82 2.14-3.04 3.44-6.12 2.18-10.42 3.32-16.78 1.7-2-2-2-2-2.2-4.16.02-.41.02-.41.08-2.46.01-.82.03-1.64.05-2.48.01-.31.01-.31.07-1.9-2.8 1.4-2.91 3.14-4 6l-2 3h-2v9c-1.09.37-2.19.74-3.31 1.12-3.12 1.33-3.68 1.86-5.63 4.88-1.06 3-1.06 3-1.06 6-.8.27-1.61.54-2.44.81-.84.39-1.69.79-2.56 1.19-1 3-1 3 0 6 .95-.82 1.9-1.65 2.88-2.5 1.37-1.17 2.74-2.33 4.12-3.5.78-.68 1.57-1.37 2.38-2.07 4.74-4.01 8.71-6.71 14.72-8.35 2.38-.73 3.98-2.02 5.9-3.58 3.87-1.38 7.94-1.22 12-1.25l2.16-.06c3.17-.03 5.46.11 8.29 1.61 2.46 2.69 2.43 5.14 2.55 8.7-.89 3.75-2.58 5.88-5.38 8.48-1.28 1.2-2.52 2.46-3.74 3.73-7.59 7.9-7.59 7.9-12.88 9.79h-3c-.21.58-.41 1.15-.62 1.75-3.74 6.1-11.8 8.51-18.38 10.25-2.38.07-2.38.07-4.5-.06l-3.5.06c-2 2.5-2 2.5-3 5 .32.15.32.15 1.94.94C469 535 469 535 470 536c.51 3.05.5 5.15-1.09 7.85-3.45 4.32-6.69 6.19-11.91 8.15l-3 2.12c-3 1.88-3 1.88-6.38 2.32-3.55.55-4.67 1.09-7.5 3.06-3.74 2.54-6.76 3.14-11.24 3.36C427 563 427 563 425 564c-1.71.07-3.42.08-5.12.06-.92-.01-1.83-.02-2.76-.02-.7-.02-1.4-.03-2.12-.04l-1-2c-.7.47-1.4.95-2.12 1.44-3.04 1.65-5.47 2.16-8.88 2.56l1.5 1.5c2.07 3.46 2.45 6.63 1.5 10.5-2.06 2.16-3.56 3.45-6 5-1.01.72-2.02 1.44-3.06 2.19-2.66 1.63-4.93 3-7.94 3.81l-3-2c-4.54.54-4.54.54-6 2-5.33.36-5.33.36-7.86-.98-2.61-1.24-4.7-1.33-7.58-1.46-4.27-.31-7.11-.83-10.56-3.56v2c-3.51 1.17-4.56.74-8-.38-.87-.27-1.73-.55-2.62-.83-1.8-.6-3.59-1.19-5.38-1.79v-2l-5-2v1c1.6 1.53 3.23 3.02 4.88 4.5.9.81 1.8 1.63 2.74 2.47C343 588 343 588 345 589c-.88 4.88-.88 4.88-2 6-3.38.95-6.5 1.32-10 1-3.19-1.83-5.48-4.35-8-7-1.55-1.43-3.11-2.85-4.69-4.25l-2.13-1.95c-5.15-4.26-8.67-5.37-15.28-5.13-9.19 1.05-14.21 5.02-20.09 11.99-1.34 1.73-2.6 3.52-3.81 5.34-5.41.53-8.53.35-13-3 1.19-9.39 9.99-16.37 17-22-6.53.82-11.33 3.11-16.94 6.38-16.72 9.67-35.51 14.8-54.75 10-7.22-2.08-12.99-5.06-18.31-10.38.21-2.62.75-3.75 2.59-5.63.63-.5 1.26-.99 1.91-1.49 3.41-2.7 3.41-2.7 4.5-4.88l3-1v-2c-1.13.5-2.27.99-3.44 1.5-17.09 5.62-38.95.33-54.56-7.5-7.12-4.26-14.62-9.81-19-17 .26-2.83.96-3.95 2.69-6.25 2.93-2.22 4.71-2.08 8.31-1.75v-2c2.64-1.32 4.64-1.13 7.6-1.13 1.13 0 2.26-.01 3.43-.01 1.18.01 2.37.01 3.59.02 1.17-.01 2.33-.01 3.53-.02 6.05.01 11.88.21 17.85 1.14-2.22-2.91-3.93-4.95-7-7v-2c-.29-.12-.29-.12-1.75-.75-2.55-1.42-4.27-3.13-6.25-5.25-.06.64-.06.64-.38 3.88-.37 3.87-.37 3.87-2.62 6.12-12.67 4.27-27.96 3.43-40-2-.72-.31-1.43-.61-2.17-.93-16.53-7.08-29.06-14.72-36.33-31.74-.5-2.33-.5-2.33.09-4.51 1.83-2.36 3.6-2.93 6.41-3.82-.32-.18-.32-.18-1.95-1.11-14.82-8.88-27.52-20.78-33.24-37.33-.92-4.04-.96-7.43-.81-11.56 3.72-.69 7.21-1.11 11-1l1-2c-.58-.23-1.15-.47-1.75-.71-8.06-4.63-13.68-15.78-16.72-24.3-1.13-4.22-.89-7.9.47-11.99l8-1c-.22-.81-.43-1.62-.66-2.46-2.7-10.76-4.56-22.62.91-32.88 1.19-1.93 2.43-3.81 3.75-5.66 4.9.42 6.86 2.31 10 6 4.37 5.61 6.26 11.51 8.11 18.34C74 375 74 375 76 376l1-4c2.85.33 4.54.57 6.66 2.57 5.79 8.73 9.18 18.9 8.34 29.43h2v-2c3.05.07 5.24.34 7.59 2.38 5.8 6.61 9.04 13.68 11.6 22 .26.79.52 1.59.78 2.42 1.7 5.41 2.56 10.54 3.03 16.2 1.03.07 2.07.13 3.13.2 9.77 2.02 18.53 14.05 23.82 22 1.19 2.04 2.13 4.11 3.08 6.27 4.19 9.44 4.19 9.44 6.97 12.53 3.8 1.38 6.91 1.5 10.95 1.58 9.75.49 19.92 8.68 26.86 15.01C193 504 193 504 193 506l3 1c1.63 1.8 3.18 3.66 4.69 5.56.81 1.01 1.61 2.03 2.45 3.07.61.78 1.23 1.56 1.86 2.37.85-.33 1.69-.66 2.56-1 6.48-1.88 11.89-.93 18.19 1.12.7.23 1.4.46 2.12.69 10.6 3.55 19.3 9.42 28.13 16.19.53.39.53.39 3.19 2.38 4.83 4.51 9.67 9.63 12.05 15.86 1.76 2.76 1.76 2.76 5.35 3.68q2.175.165 4.35.27c1.55.12 3.1.24 4.65.37.76.07 1.52.13 2.3.19 2.81.33 5.41 1.1 8.11 1.94 7.64 1.99 15.36 2.41 23 .31 2.7-2.62 4.11-4.93 5.68-8.34 1.42-2.86 2.58-4.05 5.32-5.66h2c.06-.72.12-1.44.19-2.19 1.08-3.76 2.92-5.18 5.81-7.81.51-.58 1.01-1.17 1.54-1.77 4.04-4.55 7.37-6.12 13.25-7.55 2.21-.68 2.21-.68 4.27-2.74 2.65-2.65 5.19-2.85 8.82-3.45C368 520 368 520 371 518c3.4-.3 3.4-.3 7.38-.31 1.3-.02 2.61-.04 3.96-.05 3.76.37 5.64 1.15 8.66 3.36.74-.84 1.47-1.69 2.23-2.55.99-1.11 1.97-2.22 2.96-3.33.48-.55.96-1.11 1.46-1.68 2.94-3.27 5.13-4.96 9.35-6.44 1.17-1.49 2.33-2.98 3.48-4.48 2.39-2.39 5.22-3.38 8.34-4.56 2.18-.96 2.18-.96 4.14-2.52 2.44-1.72 4.09-1.99 7.04-2.25.85-.09 1.69-.18 2.56-.27 2.71.09 4.18.61 6.44 2.08l1 2h2c-.08-1.11-.17-2.23-.25-3.38.05-8.53 3.94-14.73 9.66-20.74 1.57-1.86 2.33-3.3 3.15-5.57 1.76-4.05 3.98-5.63 7.44-8.31.68-.87 1.36-1.73 2.06-2.62 2.24-2.75 3.65-4.02 6.94-5.38 3.35-.24 6.65-.18 10 0-.02-.76-.05-1.52-.07-2.31-.02-1.03-.04-2.06-.05-3.13-.03-1.01-.05-2.02-.08-3.06.43-7.69 2.55-14.12 6.2-20.88.39-.73.79-1.46 1.2-2.21 3.96-7.08 8.68-15.25 16.43-18.52 2.49-.58 2.49-.58 6.37-.89-.11-.56-.11-.56-.69-3.38-1.07-8.95 3.36-17.64 8.69-24.62h2l1-3h6v2l5-1c.08-.66.16-1.32.25-2 1.83-7.32 6.2-14.05 10.75-20 3.08-1.54 5.61-1.3 9-1m-5 3-2 2v3h-2c-1.18 2.18-2.35 4.37-3.5 6.56-.33.61-.67 1.22-1.01 1.85-2.26 4.35-2.85 7.59-2.49 12.59h2l.79-3.04c1.13-3.94 2.72-7.6 4.52-11.27.29-.62.57-1.24.86-1.88 1.51-3.08 2.48-4.63 5.56-6.23.75-.19 1.5-.38 2.27-.58-1-2-1-2-2.94-2.75-.68-.08-1.36-.17-2.06-.25m-493 5 1 4h2l-1-4zm498 1-1 7c-.62.1-1.24.21-1.88.31C548 364 548 364 546 367l3 1v2l3 1c1.26-5.07 2.27-9.73 2-15zm-491 2 1 2Zm-10 6v7l3 1v2l3-1c-.61-5.49-.61-5.49-2.44-7.88C54 364 54 364 52 364m12 0v2h-2v8l4-1c.69-2.81.69-2.81 1-6-1.44-1.88-1.44-1.88-3-3m460 8c-2 3-2 3-2 6l4-2v-4zm24 0-1 4 2-1zm-21 5 1 7-3 1v5h2l-3 9h2c1.46-2.65 2-3.89 2-7h2c1.1-3.41.94-6.21.56-9.75l-.31-2.98c-.08-.75-.16-1.5-.25-2.27zm-462 2-1 5 3 1v-6zm-10 1 1 5h4l-2-5zm464 1v4h2v-4zm24 0-1 5h3l1-5zm7 0 1 2Zm8 1v3h3v2h-2v5c3.22-2.81 4.65-4.68 5-9-1-1-1-1-3.56-1.06zm-9 6v2l-5 2v4h4c2.48-2.62 3.86-4.57 5-8 2.06-1.69 2.06-1.69 4-3-4.23 0-5.05.26-8 3m-473 0c.26 2.34.59 4.68 1 7l2 1c.93-2.61 1.15-3.64.06-6.25-.35-.58-.7-1.15-1.06-1.75zm443-1-3 1v2h2v3h-2v7c2-1 2-1 2.85-3.5.26-1.01.51-2.02.77-3.06.27-1.01.53-2.03.79-3.07.2-.78.39-1.56.59-2.37zm-436 4c-.93 3.01-1.04 3.87 0 7h5v-6zm449 1c-2.71 4.77-4.57 8.34-4 14 3.8-1.27 4.49-2.78 6.69-6.06l1.88-2.79c.47-.71.95-1.42 1.43-2.15-1.31-1.5-1.31-1.5-3-3zm25 1-4 4 1 2 4-4zm-502 4 1 3 1-3zm16 0c-1.12 3.75-1.12 3.75 0 6h2v-5zm469 0 1 2Zm-2 2-1 4h3l1-3zm10.75 2.19c-.91.93-1.82 1.85-2.75 2.81-1.08.86-2.16 1.72-3.25 2.56-3.5 3.11-3.5 3.11-3.75 6.44 4.47-1.4 6.77-3.68 10-7l3-1 1-6c-2 0-2 0-4.25 2.19M523 402c-1.12 2.25-1.12 2.25-2 5 .88 2.31.88 2.31 2 4 2-3 2-3 1.62-6.19-.2-.93-.41-1.85-.62-2.81zm-443 3v4h2l-1-4zm-18 1v3h2l1 3h2v-5zm24 0-1 3 1 2h2v-5zm416.06 2.31C500 411 500 411 500 414h3v-2l3-1v-2h3l1 6h2c-.36 2.69-.67 4.56-2.31 6.75-1.69 1.25-1.69 1.25-3.75 1.69-1.94.56-1.94.56-3.25 2.44C502 428 502 428 503 431h4l-1 5-6 1-1 5c1.81.62 1.81.62 4 1 3-2 3-2 3.38-3.81.62-2.19.62-2.19 3.18-4.63 2.44-2.56 2.44-2.56 2.75-5.37-.1-.72-.2-1.45-.31-2.19h-2v-3h2v-2l3-1c.22-3.91-.48-6.43-2-10-.37-1.66-.71-3.32-1-5-4.46-.44-6.35-.51-9.94 2.31M51 407c1.35 4.41 3.19 6.43 7 9h2v-4h-2l-1-3c-3.06-1.19-3.06-1.19-6-2m477 3-1 3 1 2h-2l-1 3c3.82-1.56 6.19-4.04 9-7l-1-3c-1.94 0-3.38 1.04-5 2m-457 4c.25 2.38.25 2.38 1 5 2.06 1.31 2.06 1.31 4 2-.25-2.38-.25-2.38-1-5-2.06-1.31-2.06-1.31-4-2m424.19 3.25C494 419 494 419 494 422c1.15-.17 1.15-.17 7-1l1-4c-4.51-1.34-4.51-1.34-6.81.25M64 421l-2 2c4.75 4 4.75 4 7 4l1-4c-3-2-3-2-6-2m31 1c-.29 5.67-.01 8.99 3 14h2c.08-1.58.14-3.17.19-4.75.01-.44.01-.44.1-2.67-.34-3.06-1.17-4.39-3.29-6.58zm397 1c-4.29 6.03-4.47 10.71-4 18l4 1c2-3 2-3 1.69-5.44-.12-.42-.12-.42-.69-2.56-.19-.76-.37-1.53-.56-2.31-.15-.56-.29-1.12-.44-1.69.64.19 1.28.37 1.94.56.34.07.34.07 2.06.44 1-1 1-1 1.06-4.06L497 424zm-412 2v4h2v-4zm24 2c.86 8.57.86 8.57 3 12h2c1.01-5.04.97-8.24-1-13-2 0-2 0-4 1m-30 3-1 2 3 1v-3zm15 0-2 9-5 1c1.61 4.07 4.54 6.77 7.62 9.75.52.51 1.04 1.01 1.57 1.54 1.26 1.24 2.54 2.47 3.81 3.71 0-7.96-1.98-16.32-4-24zm448 4v2c.83.17.83.17 5 1-.33.5-.33.5-2 3v4h2c2.47-2.47 2.98-3.71 3.19-7.25-.06-.91-.13-1.81-.19-2.75-5.75-1.12-5.75-1.12-8 0m-476 1 2 4 3-2c-.82-.33-.82-.33-5-2m469 1c-2.04 1.27-4.04 2.61-6 4v2c-1.05-.14-2.1-.29-3.19-.44-3.81.44-3.81.44-5.39 1.93-3.42 4.75-3.42 4.75-3.42 7.51l-3 1c-.69 2.06-.69 2.06-1 4h6c.27-1.13.54-2.27.81-3.44.39-1.17.79-2.35 1.19-3.56l3-1v2c3.46-.29 4.78-.79 7.31-3.25 1.81-2.95 2.08-4.37 1.69-7.75l4-1zm-474 3-1 3c1.38 1.5 1.38 1.5 3 3h2v-2h-2l-1-4zm14 1c-.69 1.69-.69 1.69-1 4 1.74 3.84 3.26 5.26 7 7l1 3h2c.35-4.87-.45-7.84-3-12-3-2-3-2-6-2m416 2v3Zm-387 1c.47 4.06.88 7.47 3 11h1v-8h-2l-1-3zm11 2-2 2c.38 3.62.38 3.62 1 7h3v-8zm422 1c.31 1.94.31 1.94 1 4l3 1 1-5zm-35 1c-3.63 2.42-3.68 3.5-4.69 7.62-.12.51-.12.51-.76 3.04-.18.77-.36 1.55-.55 2.34h3c1.61-1.61 1.61-1.61 3.19-3.75.53-.7 1.06-1.39 1.6-2.11C500 452 500 452 500 448zm-434 2c-1.69 2-1.69 2-3 4 2.58 2.65 4.92 4.94 8 7 2.69-.38 2.69-.38 5-1l1-4h-4c-.1-.62-.21-1.24-.31-1.88C69 451 69 451 66 449zm57 3v5l4 2-3-7zm366 0c-.62 1.88-.62 1.88-1 4l2 2c1-1 1-1 1.06-3.56L488 452zm39 0c-.19.78-.37 1.57-.56 2.38-1.44 2.62-1.44 2.62-4.88 3.74-.59.15-.59.15-3.56.88-1.94 1.62-1.94 1.62-3 3l2 4c1.75-.93 3.5-1.87 5.25-2.81.97-.52 1.95-1.05 2.95-1.58 6.57-3.77 6.57-3.77 7.55-7.3.08-.76.16-1.52.25-2.31zm-440 2c-1 1-1 1-1.38 3.38.38 2.62.38 2.62 2.76 4.43C89 463 89 463 91 463l-3-9zm385.88 3.5c-.73.46-1.45.93-2.2 1.41-.55.36-1.11.72-1.68 1.09l1 4c.58-.29 1.15-.58 1.75-.88 2.08-1.04 4.17-2.08 6.25-3.12l1 6h2c1.35-7.47 1.35-7.47-.31-10-3.27-1.94-4.88-.39-7.81 1.5M129 456l-1 3 1 2h2l-1-5zm373 4c-2.04 1.43-2.04 1.43-4.19 3.44-.71.66-1.43 1.31-2.17 1.99-.27.26-.27.26-1.64 1.57l1 3h2v-3c.76-.1 1.53-.21 2.31-.31 2.87-.74 3.92-1.36 5.69-3.69v-2zm-398 2 1 4 1-3zm7 1-1 4h3v-4zm-35 1v3c2.25 1.75 2.25 1.75 5 3 2.31-.31 2.31-.31 4-1-1-3-1-3-4-5-2.69-.12-2.69-.12-5 0m19 1v5h2l1-3-1-2zm40 1c-1.43 6.7-.59 10.21 3 16l3-1c1.47-3.8.77-6.14-.75-9.75-1.05-2.36-1.05-2.36-2.25-4.25zm342.94 1.81C476 470 476 470 476 473c-.74.1-1.49.21-2.25.31-3.02.76-4.55 1.49-6.75 3.69-.75 2.69-.75 2.69-1 5h3c-1.13 3.29-1.99 4-5.12 5.75-.95.41-1.9.82-2.88 1.25v2h2l-1 4c3.15-1.12 4.05-2.08 5.94-4.94 2.06-3.06 2.06-3.06 4.75-4.5.76-.51 1.52-1.03 2.31-1.56.14-1.05.29-2.1.44-3.19.68-4.61 2.39-6.57 5.38-10.01.39-.6.78-1.19 1.18-1.8l-1-3c-1 0-1 0-3.06 1.81M121 467c.29 5.97 3.03 8.89 7 13l4-1c-3.78-9.18-3.78-9.18-6-12-2.69-.31-2.69-.31-5 0m340 0c.81 1.94.81 1.94 2 4l3 1 1-5zm40 3 1 3 3-1-1-2zm-44.38 4.31c-.86.89-1.73 1.78-2.62 2.69-.55.42-1.09.85-1.65 1.28-2.02 2.58-1.64 4.7-1.54 7.91.03 1.08.06 2.17.08 3.29.04.83.07 1.66.11 2.52h3c2-3 2-3 1.69-5.38-.12-.43-.12-.43-.69-2.62-.33-1.67-.67-3.33-1-5 3 1 3 1 5 3 1.62-2.19 1.62-2.19 3-5-.81-2.81-.81-2.81-2-5-1 0-1 0-3.38 2.31M89 473v4c.99.16.99.16 6 1v-3zm28 0-4 7h-2l-1-2h-2v2c-.33.16-.33.16-2 1 4.98 3.54 10.27 6.84 16 9l3-1c-1.43-3.66-2.99-7.24-4.62-10.81-.45-.98-.9-1.95-1.36-2.96-.33-.74-.67-1.47-1.02-2.23zm-24 12-1 3c.82.33.82.33 5 2v-5zm51 2c-.75 1.56-.75 1.56-1 4 1.13 2.5 2.52 4.67 4 7l2-1c-.14-1.28-.29-2.56-.44-3.88-.04-.35-.04-.35-.24-2.17C148 489 148 489 147 487zm-40 1c-.5 2.62-.5 2.62 0 6 2.36 2.5 4.95 4.43 8 6h4c-.27-3.84-.79-5.74-3.19-8.81-3.07-2.4-4.97-2.92-8.81-3.19m28 0c.51 4.4 3.08 6.87 6 10h2c-.65-3.5-1.9-6.13-4-9-2.19-.81-2.19-.81-4-1m-47 1c.75 1.94.75 1.94 2 4 2.12.75 2.12.75 4 1v-3c-3-2-3-2-6-2m406 4c-1.97.24-1.97.24-4.06.31-4.27.75-4.61.95-6.94 4.25-.66 1.14-1.32 2.27-2 3.44l2 2 2-2c2.12-.62 2.12-.62 4-1l-1 3 3 1c3.4-1.81 5.54-3.09 7.31-6.56.23-.81.46-1.61.69-2.44l1-3c.85.19 1.69.37 2.56.56 3.72.48 6.77.1 10.44-.56-1.2 3.08-2.48 6.06-4 9 2.25-.12 2.25-.12 5-1 2.61-3.02 4.06-4.75 3.88-8.81C514 489 514 489 512 488c-8.38-.41-14.04.26-21 5m-326-1 1 2h2l1 4 2-4zm-7 3 1 3 5 1c-1.31-2-1.31-2-3-4zm-35 2-1 1c.12 3.38.12 3.38 1 7 2.42 1.92 3.88 3 7 3-.44-5.04-2.66-7.41-6-11zm-26.89 2.32c-.7.56-1.39 1.11-2.11 1.68 2.75 3.36 4.76 5.29 9.06 5.88 5.17.16 5.17.16 7.94-.88v-2c-1.88-1.09-3.78-2.15-5.69-3.19-1.05-.59-2.11-1.18-3.2-1.79-3.11-1.02-3.11-1.02-6 .3M424 501c-.28.67-.56 1.34-.86 2.02-1.14 1.98-1.14 1.98-3.23 2.63-.8.1-1.59.19-2.41.29-2.46.43-2.46.43-4.5 1.06-1.19 2.56-1.19 2.56-2 5-2 .35-4 .69-6 1-3.35 2.6-4.84 3.95-5.5 8.19-.17.93-.33 1.85-.5 2.81-2.56 1.38-2.56 1.38-5 2v4h2v-2c.46.03.46.03 2.81.19 3.19-.19 3.19-.19 5-1.19 1.88-3.16 1.84-6.36 2.19-10l1-1 2 3 4-1c.33-1.15.33-1.15 2-7 .99.16.99.16 6 1 .39-.95.78-1.9 1.19-2.88 1.81-3.12 1.81-3.12 4.31-4.5 2.5-.62 2.5-.62 5.5-.62-.51 2.17-1 4-2 6 .44 2.12.44 2.12 1 4-.75.24-1.5.48-2.27.73-.49.17-.49.17-2.98 1.02-.49.16-.49.16-2.95.98-3.01 1.36-4.71 2.74-6.8 5.27v2h4l-1 3-9 1c-.62 2.38-.62 2.38-1 5l2 2 4-2v-2c1.24-.08 2.48-.16 3.75-.25 2.96-.38 4.17-.7 6.69-2.44 1.56-2.31 1.56-2.31 2-5.37.56-2.94.56-2.94 2.94-4.75C433 517 433 517 436 516c1-3 1-3 1.5-6.5s.5-3.5 1.5-6.5c-1.94-2.63-3.12-3.03-6.38-3.81-3.67-.19-5.49-.07-8.62 1.81m31-2c-3.12 4.54-4.55 7.36-4 13 3.35-1.39 4.87-2.8 6.75-5.88l1.3-2.05C460 502 460 502 460 498c-2 0-2 0-5 1m-277 0c-.5.33-.5.33-3 2 .49 4.42 1.85 6.3 5.06 9.31.74.7 1.47 1.4 2.23 2.12.56.52 1.13 1.03 1.71 1.57l2-1c.5-5.29-.65-7.91-4-12-2.25-1.38-2.25-1.38-4-2m320 2c-.6 2.76-1 5.16-1 8 4.88-1.35 6.49-3.72 9-8zm-51 1-2 2 1 3 2-2zm-297 1v5l3 1v-5zm324 0-1 5c.82.16.82.16 5 1l1-6zm-311 3c.99 3.55 1.89 4.91 4.81 7.25 2.88 1.58 4.96 2.37 8.19 2.75l2-3c-6.56-6.68-6.56-6.68-10.09-7.46-1.91.02-1.91.02-4.91.46m330 0-7 4v2h3l-1 2c-3.06.62-3.06.62-6 1v-2c-3.78 1.09-6.47 1.91-9 5 1.86 1.86 4.75 1.3 7.25 1.38 6.29-.05 6.29-.05 9.87-2.63.62-.91 1.24-1.82 1.88-2.75.6-.76 1.2-1.53 1.81-2.31.39-.56.79-1.12 1.19-1.69zm-355 2-1 3 4 1-2-4zm-24 2v4c2.64 1.32 4.68 1.1 7.62 1.06 1.01-.01 2.01-.02 3.04-.02.77-.02 1.55-.03 2.34-.04-1-3-1-3-3.38-4.69-3.57-1.78-5.91-1.33-9.62-.31m342.75 4.25c-.89.62-1.78 1.25-2.7 1.89-.68.61-1.35 1.23-2.05 1.86v3c4.14-.61 7.31-2.04 11-4 1.33-.67 2.67-1.33 4-2-1-3-1-3-2.73-3.89-3.32-.16-4.86 1.23-7.52 3.14M192 513l-2 2c.1 3.76.99 4.99 3.56 7.81.81.72 1.61 1.45 2.44 2.19.88-2.47 1.13-3.64.22-6.14-.19-.35-.19-.35-1.16-2.11-.19-.35-.19-.35-1.15-2.14L193 513zm248 2c-.74.95-1.49 1.9-2.25 2.88-1.67 2.04-2.46 3-4.94 4-2.39 1.48-2.39 2.56-3.06 5.24-.25 1.28-.5 2.56-.75 3.88-.29.07-.29.07-1.73.4-2.25.59-4.36 1.33-6.52 2.16-.71.27-1.41.54-2.14.82-.53.2-1.06.41-1.61.62v4c3.28-.37 4.85-.87 7.44-3 2.98-2.33 4.82-2.76 8.56-3 1.34.3 2.68.62 4 1l2-1v-2l6-1v-3c.15-1.56.32-3.13.5-4.69.05-.4.05-.4.28-2.45.07-.61.15-1.23.22-1.86h-3v-2zm-308 2c-.33.5-.33.5-2 3 2.71 1.35 5.01 1.07 8 1v-2c-3-2-3-2-6-2m341 3-2 4 4-1-1-3zm-294 2v2l10 4c-1.07-4.27-1.44-4.84-5-7-2 0-2 0-5 1m41 0v2c.82.33.82.33 5 2v-3zm241 0c-3.19 1.88-3.19 1.88-6 4v1c2.25.25 2.25.25 5 0 2.31-2 2.31-2 4-4zm-90 3 1 3c1.49-.16 1.49-.16 9-1l-1.94 2.88C377 533 377 533 376 535h2l-1 4c-.58-.02-1.16-.05-1.76-.07-4.8-.11-8.81-.04-13.24 2.07-1.88 2.12-1.88 2.12-3 4l6 2c-3.04 1.77-5.12 2.21-8.62 2.06-4.19-.16-4.19-.16-6.38.94 0 2 0 2 1.25 3.69 1.75 1.31 1.75 1.31 3.87 1.06C357 554 357 554 358 553c1.4-.03 2.79-.05 4.19-.06 3.07-.28 4.36-.46 6.49-2.75.96-1.45 1.9-2.91 2.84-4.38 1.75-2.14 2.65-2.46 5.36-2.81H380c1.91-5.6 1.91-5.6 2.5-8.19.5-1.81.5-1.81 2.5-4.81.31-2.56.31-2.56 0-5-3-2-3.63-2.28-7-2.25-.68-.01-1.36-.01-2.06-.02C374 523 374 523 371 525m-158 0 1 4 5 1c0-2 0-2-1.31-3.62C216 525 216 525 213 525m-11 1c-.69 1.81-.69 1.81-1 4 1.44 1.75 1.44 1.75 3 3v-7zm27 0c1.21 6.21 5.01 9.48 10 13h2c.49-6.33.49-6.33-1.69-9.31-3.41-2.49-6.07-3.69-10.31-3.69m133 1c-.33.5-.33.5-2 3 1.69 2.06 1.69 2.06 4 4 2.75-.25 2.75-.25 5-1l-1-5c-.99-.16-.99-.16-6-1m-9 7 2 6c1.94-.75 1.94-.75 4-2 1.24-2.95 1.04-3.87 0-7-2.76 0-3.89 1.31-6 3m-210-2 2 5 6-1c-2.4-2.9-4.31-3.5-8-4m14 0c-.62 2.31-.62 2.31-1 5 2.96 4.44 6.94 4.89 12 6 3.62.19 3.62.19 6 0l-1-3h-2c-.19-.76-.37-1.53-.56-2.31-2.05-3.84-4.38-4.38-8.44-5.69-2.94-.19-2.94-.19-5 0m38 1v3h3l-1-3zm150 3-.88 3.06L343 542c-1.98.73-3.98 1.4-6 2-.88 2.12-.88 2.12-1 4l5-2 1 2c3.14-.92 4.65-1.41 6.36-4.28.32-.88.63-1.75.95-2.66.33-.87.65-1.75.99-2.65.7-2.41.7-2.41.7-5.41-2.91 0-3.9 1.03-6 3m95 0c-2.67.26-2.67.26-5.19.12-3.1-.14-4.81-.12-7.81.88v3c-2.94 1.52-5.92 2.8-9 4v4c2.12.38 2.12.38 5 0 1.66-1.42 3.06-2.93 4.47-4.59 1.8-1.66 3.15-2.01 5.53-2.41l-1 4 3 1c2.01-1.11 2.01-1.11 4.12-2.75.71-.53 1.41-1.06 2.14-1.61C443 540 443 540 444 537l3.75.06c2.91.01 5.46-.13 8.25-1.06v2h2l-1 5h-2v3c3.11-.35 4.83-.87 7.38-2.75 1.62-2.25 1.62-2.25 1.56-4.87C463 536 463 536 460 534c-3.14-.52-3.14-.52-6.81-.81-1.21-.11-2.41-.22-3.65-.33-3.97.16-6.07 1.3-9.54 3.14m-221-1c1.4 3.39 2.76 5.21 6 7 2.75.67 5.14.86 8 1l2-2c-9.9-8.03-9.9-8.03-16-6m-41 2c2.03 7.02 2.03 7.02 5 9 2.69.19 2.69.19 5 0v-4c-.8-.27-1.61-.54-2.44-.81-.84-.39-1.69-.79-2.56-1.19l-1-3zm210 0-2 6c1.71-1.28 3.37-2.62 5-4v-2zm10.08 1.46c-.61.63-1.21 1.26-1.83 1.92l-1.86 1.89C393 544 393 544 393 546h-2v3c5.2-1.36 8.18-3.36 12-7v-2l2-1-1-2c-4 0-4 0-5.92 1.46M247 538c.19 2.81.19 2.81 1 6 2.41 1.85 3.93 3 7 3-1.97-6.82-1.97-6.82-5-9zm-111 1c.33.16.33.16 2 1v2l6 2 2-3c-3.51-1.6-6.14-2.22-10-2m78 1-1 2c-.5.33-.5.33-3 2l1 2h2l.94 1.94C215 550 215 550 216 551q.06 3 0 6l-5 2c.5.33.5.33 3 2 1.67-.66 3.33-1.33 5-2 3.1-.4 6.2-.51 9.31-.62.84-.04 1.67-.08 2.54-.12 2.05-.1 4.1-.18 6.15-.26-.95-3.56-1.67-4.79-4.83-6.81-.56-.27-.56-.27-3.42-1.63-5.3-2.67-8.81-5.19-12.75-9.56zm195 0-1 3c.33.16.33.16 2 1l2-1-1-3zm-214 2c.69 2.88.69 2.88 2 6 2.44 1.44 2.44 1.44 5 2l3-1c-1.29-1.17-2.58-2.34-3.88-3.5-.71-.65-1.43-1.3-2.17-1.97C197 542 197 542 195 542m250 4 1 5 5-1-1-5c-3 0-3 0-5 1m-294 0-1 5c5.23 1.74 9.47 2.54 15 2 3-2 3-2 5-4-6.12-3.52-12.04-4.96-19-3m225 0c-.66 1.11-1.32 2.23-2 3.38-.37.62-.74 1.25-1.12 1.89C372 553 372 553 372 555c-.59-.06-1.18-.12-1.79-.18-6.54-.37-6.54-.37-10.27 2.68-.64.83-1.28 1.65-1.94 2.5 5.75.12 5.75.12 8-1 4.05-.26 5.54-.3 9 2 4.17.23 7.94-.02 12-1 1.12-4.75 1.12-4.75 0-7-.78-.45-1.57-.91-2.38-1.38-2.62-1.62-2.62-1.62-4.24-3.81-.23-.3-.23-.3-1.38-1.81zm-138 1c.38 1.94.38 1.94 1 4 2.71 1.35 5.01 1.07 8 1l1-3c-3.4-2.09-6.05-2.18-10-2m21 1c.4 2.89.79 3.82 3.06 5.75.64.41 1.28.83 1.94 1.25-.25-2.38-.25-2.38-1-5-2.06-1.31-2.06-1.31-4-2m136 6v1c6.7.49 11.07-.92 17-4-2-2-2-2-5.69-2.44-5 .09-7.58 2.26-11.31 5.44m39-5c0 3 0 3 1 6-1.07-.31-2.14-.62-3.25-.94L428 553c-.74-.23-1.49-.45-2.25-.69C424 552 424 552 421 553c-1.05 1.64-2.05 3.3-3 5l-2 2c4 0 4 0 7.12-1.56.95-.48 1.9-.95 2.88-1.44l2 1c4.83.44 7.98-.26 12-3 1.38-3.19 1.38-3.19 2-6zm-260 4v3c2.29 1.14 3.59 1.1 6.12 1.06L184 557v-2l6-1c-2.43-2.43-3.51-2.41-6.88-2.75-.86-.1-1.72-.2-2.61-.3-2.73.05-4.2.65-6.51 2.05m158-1-5 4 1 3 5-5zm-136 3-1 3h8c-3.62-3-3.62-3-7-3m58 0v3l4-1zm78.62 6.06C331 563 331 563 330 566c1.59-.26 3.17-.53 4.75-.81.88-.15 1.76-.3 2.67-.46 2.83-.8 4.45-1.72 6.58-3.73.75-3.19.75-3.19 1-6-4.97 0-8.73 2.9-12.38 6.06M400 560c1 1 1 1 3.56 1.06L406 561l1-2c-3.49-1.2-3.68-1.21-7 1m-52 1 1 3 4-1-2-2zm-110 3v3c2 2 2 2 5.12 2.12L246 569l1-4c-2.96-1.48-5.74-1.06-9-1m17 0-1 3h5v-2zm106.75 2.44c-.71.47-1.41.94-2.14 1.43L358 569l2 2c3.76-.1 4.99-.99 7.81-3.56.72-.81 1.45-1.61 2.19-2.44-3.65-1.37-5.09-.72-8.25 1.44M214 566c2.46 2.81 4.27 3.94 8 4.27 3.01-.02 6-.1 9-.27l1-2c-1.69-2.05-2.69-2.92-5.3-3.58-8.56-.77-8.56-.77-12.7 1.58m140-1 4 1Zm18 0 1 5h5l-1-4zm10 0c.19.6.37 1.2.56 1.81C383 569 383 569 382 572l4 1c1.06-1.88 1.06-1.88 2-4l-1-2h-3v-2zm-38 2-1 3h3v-3zm-141 3h8l-1-2c-4.75-.25-4.75-.25-7 2m77.19 9.5c-.72.83-1.45 1.65-2.19 2.5-.48.51-.95 1.02-1.44 1.54-1.44 1.58-1.44 1.58-3.56 4.46l1 3c3.85-3.06 7.15-5.94 10-10v-2c1.33-.67 2.67-1.33 4-2 .88-.49 1.76-.97 2.66-1.47 3.65-1.67 7.17-2.49 11.09-3.15.7-.13 1.4-.26 2.12-.39 4.76-.83 9.49-1.41 14.31-1.68C320 570 320 570 322 568c-15.87-.51-29.37.44-41.81 11.5M391 568v4c.4.14.4.14 2.44.88C396 574 396 574 397 576c-.47.13-.47.13-2.88.81C391 578 391 578 389 581c5.63-.45 8.61-1.68 13-5-.19-2.31-.19-2.31-1-5-3.33-2.68-5.76-3.36-10-3m-134 5c-1.62 2-1.62 2-3 4l5-1v-3zm-19 3 1 4c3.31-.19 3.31-.19 7-1 1.94-2.56 1.94-2.56 3-5-7.43-.29-7.43-.29-11 2m-34 0v3h4l1-3zm12.08 1.32C215 579 215 579 215 582c9.68.69 9.68.69 13.62-1.88.79-.7 1.57-1.4 2.38-2.12v-2c-2.1-.08-4.21-.14-6.31-.19-1.17-.03-2.35-.07-3.55-.1-3.14.29-3.14.29-5.06 1.61M340 579c3.08 1.03 5.33 1.17 8.56 1.19.49 0 .49 0 2.94.04C354 580 354 580 356 578c-2.96-1.69-5.16-2.3-8.56-2.31-.77-.02-1.53-.04-2.32-.05-2.6.44-3.47 1.36-5.12 3.36m35-2v5c-2.94-.81-2.94-.81-6-2l-1-3h-5c-.56 1.94-.56 1.94-1 4 1.8 1.8 4.73 1.41 7.19 1.62.3.06.3.06 1.81.38l1 2h8l1-2h7v-3c-4.21-3.13-7.93-4.69-13-3m14 6-2 2h5l1-2z"/><path fill="#003da5" d="M290 447c3.83 3.52 4.73 6.75 5.12 11.77-.17 3.24-1.39 5.54-3.12 8.23h-2c.19 2.19.19 2.19 1 5 .85.66 1.69 1.32 2.56 2 3.42 4.2 3.14 7.54 2.92 12.83-.89 5.83-3.45 8.59-7.98 12.11-6.57 1.99-13.55 2.04-20.06-.13-4.03-2.99-6.49-5.87-7.44-10.81-.51-6.69-.01-11.34 4.12-16.81L267 469c-.85-.97-1.69-1.94-2.56-2.94-2.06-2.92-2.86-4.9-2.69-8.5.94-5.34 4.1-9.19 8.25-12.56 6.49-2.37 14.33-1.92 20 2m-18.5 5.56c-2.08 3.39-2.06 5.53-1.5 9.44 1.44 2.44 1.44 2.44 4 4 4.34.77 7.76.76 11.56-1.56 1.97-3.33 1.85-5.64 1.44-9.44-2-3-2-3-5-4-7.1-.56-7.1-.56-10.5 1.56M269 477c-1.44 4.3-1.53 7.77.25 11.94 2.02 2.38 3.7 3.87 6.84 4.43 4.5.13 6.29.14 9.91-2.81.66-.84 1.32-1.69 2-2.56l1-1c.43-3.05.49-5.95 0-9-3.14-3.31-5.72-4.88-10.25-5.31-4.56.38-6.47 1.11-9.75 4.31M333.375 444.938c4.53 3.56 7.95 8.19 9.28 13.84 1.16 10.86 1.47 22.83-2.84 33.04-3.64 4.38-8.26 7.74-14.01 8.46-6.64.27-10.69-1.02-15.81-5.28-2.06-2-2.06-2-3-4 .32-2.75.32-2.75 1-5 3.27.38 4.23 1.22 6.69 3.56 3.25 2.83 5.97 3.17 10.2 2.94 4.6-1.08 6.64-4.79 9.11-8.5.4-2.32.74-4.66 1-7-.54.3-1.09.6-1.65.91-5.82 2.94-10 3.76-16.35 2.09-4.68-1.76-7.24-3.82-10-8-2.27-7.25-1.57-14.33 1.79-21.08 5.34-8.44 15.83-8.41 24.59-5.98m-17.44 7.75c-2.97 5.08-3.18 10.59-1.94 16.31 3.76 3.78 6.67 4.91 12 5 4.1-1.08 6.59-2.38 9-6 .75-5.05.52-8.99-1.81-13.56-2.38-2.66-3.78-3.25-7.27-3.71-4.03-.18-6.38-.02-9.98 1.96M247 446c.85 2.95 1.13 5.58 1.13 8.65 0 .91.01 1.82.01 2.77 0 .97-.01 1.95-.01 2.96 0 .51 0 .51.01 3.07 0 2.13-.01 4.26-.01 6.4 0 3.27 0 6.54.01 9.82 0 2.07-.01 4.14-.01 6.21 0 .99.01 1.97.01 2.98 0 .91-.01 1.82-.01 2.75v2.43C248 496 248 496 247 498q-3 .06-6 0c-1-1-1-1-1.11-4.51 0-1.56 0-3.12.01-4.68 0-.82.01-1.64.01-2.49 0-2.62.01-5.25.03-7.88 0-1.78.01-3.56.01-5.34.01-4.36.03-8.73.05-13.1h-11l-1-3c2-3 2-3 5.38-3.81 4.47-1.47 5.33-3.2 7.62-7.19 2.49-1.25 3.41-.78 6 0M356.576 444.861c.78 0 1.56 0 2.36.01.8 0 1.59-.01 2.41-.01 1.69 0 3.37 0 5.05.01 2.59 0 5.18 0 7.77-.01 1.63 0 3.26 0 4.9.01.78-.01 1.55-.01 2.36-.01 5.46.02 5.46.02 6.57 1.14.35 3.43.44 5.34-1.5 8.25-.68.72-1.36 1.44-2.06 2.19-9.24 10.86-13.54 24.78-16.01 38.63-.43 1.93-.43 1.93-1.43 2.93-2.33.04-4.66.04-7 0 .85-10.27 3.31-19.03 7.88-28.25.33-.66.65-1.32.99-2.01 1.73-3.37 3.59-6.48 5.83-9.54 2.3-3.2 2.3-3.2 3.3-6.2-.4 0-.4 0-2.46.01-3.66.03-7.32.04-10.97.05l-3.88.03c-.61 0-.61 0-3.68.01-1.13 0-2.25.01-3.41.01-2.6-.11-2.6-.11-3.6-1.11-.12-2.5-.12-2.5 0-5 1.79-1.79 4.2-1.13 6.58-1.14"/></svg>